<?xml version="1.0" encoding="utf-8"?>
<!-- Generator: Adobe Illustrator 23.0.1, SVG Export Plug-In . SVG Version: 6.00 Build 0)  -->
<svg version="1.1" id="Layer_1" xmlns="http://www.w3.org/2000/svg" xmlns:xlink="http://www.w3.org/1999/xlink" x="0px" y="0px"
	 viewBox="0 0 50 50" style="enable-background:new 0 0 50 50;" xml:space="preserve">
<style type="text/css">
	.st0{fill:#75AE09;}
</style>
<path id="Path_29" class="st0" d="M18.6,21.4c3.1,2.7,6.4,5.3,9.5,8.2c0.8,1,2.3,1.2,3.1,0.4c0,0,0,0,0.2,0c2.5-2.1,6.2-1.9,8.4,0.4
	c1.9,1.4,3.9,2.7,5.8,3.9c2.1,1.2,2.9,3.7,1.6,6c-0.2,0.2-0.2,0.4-0.4,0.6c-0.2,0.4-0.4,0.6-0.6,0.8c-5.8,6.8-7.4,7.8-15.6,3.5
	C19.8,39.5,10.8,30.6,4.8,19.9c-1.2-2.1-2.1-4.5-2.5-6.8c-0.2-1.4,0-3.1,0.8-4.3c1.9-2.3,3.9-4.1,6.2-6c1.9-1.2,4.3-0.8,5.6,0.8
	c0.4,0.2,0.4,0.4,0.6,0.4c1.6,2.5,3.3,5.1,4.9,7.6C22.5,14.8,20.6,17.5,18.6,21.4z M38.5,45.3c1.6-1.4,3.5-2.9,4.9-4.5
	c2.1-2.3,1.9-2.9-0.6-4.7c-1.2-0.8-2.7-1.6-3.9-2.5c-1.9-2.1-5.1-2.3-7.2-0.4c0,0,0,0-0.2,0c-1.2,1.2-3.1,1.2-4.3,0L27,32.9
	c-3.1-3.3-6.4-6.4-9.7-9.5c-1.4-1.4-1.9-3.7-0.6-5.1c0-0.2,0.2-0.4,0.4-0.4c1-1.2,2.1-2.9,0.8-4.7c-1.6-2.3-3.1-4.7-4.7-6.8
	c-0.6-0.6-1.6-1-2.5-0.8c-5.3,2.7-6.4,6-4.1,11.3c0.2,0.6,0.6,1.2,1,1.9c6,9.9,14.2,17.9,24.1,23.9C33.8,43.6,36.1,44.6,38.5,45.3
	L38.5,45.3z"/>
</svg>
