<?xml version="1.0" encoding="utf-8"?>
<!-- Generator: Adobe Illustrator 23.0.1, SVG Export Plug-In . SVG Version: 6.00 Build 0)  -->
<svg version="1.1" id="Layer_1" xmlns="http://www.w3.org/2000/svg" xmlns:xlink="http://www.w3.org/1999/xlink" x="0px" y="0px"
	 viewBox="0 0 50 50" style="enable-background:new 0 0 50 50;" xml:space="preserve">
<style type="text/css">
	.st0{fill:#75AE09;}
</style>
<g id="Group_70" transform="translate(0.028 -8.685)">
	<g id="Group_70-2" transform="translate(-0.028 8.685)">
		<path id="Path_110" class="st0" d="M32.4,14.8c2.8,0,5.7,0,8.5,0c2.8-0.1,5.4,1.8,6.1,4.5c0.5,1.8,1,3.6,1.5,5.3
			c0.5,1.4,0.9,2.8,1.1,4.3c0.2,2.9,0.1,5.9,0.1,8.8c0,0.5-0.4,1-0.9,1c-0.1,0-0.1,0-0.2,0c-0.4,0-0.9,0-1.3,0c-0.4,0-0.9,0.2-1,0.6
			c-0.4,0.9-1,1.7-1.7,2.3c-2.8,2.2-6.5,1.1-7.9-2.2c-0.2-0.4-0.3-0.8-0.9-0.8c-6.6,0-13.1,0-19.7,0c-0.4,0-0.8,0.2-0.9,0.6
			c-0.7,2.1-2.6,3.5-4.8,3.5c-2.2-0.1-4.1-1.5-4.8-3.5c-0.2-0.3-0.5-0.5-0.8-0.6c-1-0.1-1.9,0-2.9,0c-1,0-1.3-0.3-1.3-1.3
			c0-8.9,0-17.9,0-26.8c0-1.1,0.3-1.4,1.4-1.4H30c1.3,0,1.5,0.2,1.5,1.5c0,1.3,0,2.6,0,4C31.8,14.8,32.1,14.8,32.4,14.8z M3.5,11.3
			c-0.7,0-0.9,0.2-0.9,0.9c0,5.5,0,11,0,16.5c0,0.8,0.3,1,1,1c8.3,0,16.6,0,24.8,0c0.8,0,1-0.2,1-1c0-5.4,0-10.9,0-16.3
			c0-0.8-0.2-1-1-1c-4.2,0-8.3,0-12.5,0S7.7,11.4,3.5,11.3z M31.5,17.5c0,3.3,0,6.6,0,10c0,0.5,0.1,0.7,0.7,0.7c4.9,0,9.8,0,14.8,0
			c0.1,0,0.3,0,0.4-0.1c-0.2-0.8-0.4-1.6-0.6-2.3c-0.5-1.9-1-3.7-1.5-5.6c-0.5-2-2.3-3.4-4.4-3.3c-2.8,0-5.6,0-8.4,0h-0.9
			C31.5,17.2,31.5,17.4,31.5,17.5z M29.4,32.2c0-0.2-0.3-0.4-0.5-0.5c-0.1-0.1-0.3,0-0.5,0c-8.3,0-16.6,0-24.9,0c-0.8,0-1,0.2-0.9,1
			c0.1,1.3,0,2.6,0,4c0.9,0,1.6,0,2.4,0c0.2,0,0.4-0.3,0.5-0.5c1-2.5,2.8-3.7,5.5-3.4c1.9,0.1,3.6,1.4,4.1,3.2
			c0.1,0.5,0.5,0.8,1,0.8c4.2,0,8.3,0,12.5,0h0.8C29.4,35.1,29.4,33.7,29.4,32.2L29.4,32.2z M47.6,30.7c0-0.1-0.3-0.4-0.5-0.4
			c-5,0-10.1,0-15.1,0c-0.2,0-0.5,0.3-0.5,0.4c0,2,0,3.9,0,5.9h5c0.2-0.5,0.5-1.1,0.8-1.6c1-1.8,3.1-2.7,5.1-2.3
			c1.8,0.2,3.4,1.5,3.9,3.2c0.2,0.6,0.5,0.9,1.2,0.6C47.6,34.6,47.7,32.7,47.6,30.7L47.6,30.7z M41.5,34.7c-1.7,0-3.1,1.4-3.1,3
			c0,1.7,1.4,3.1,3,3.1c1.7,0,3.1-1.4,3.1-3c0,0,0,0,0,0C44.6,36.1,43.2,34.7,41.5,34.7C41.5,34.7,41.5,34.7,41.5,34.7L41.5,34.7z
			 M7.3,37.9c0.1,1.7,1.5,3,3.2,3c1.7,0,3-1.4,3-3.1c0-1.7-1.4-3-3.1-3c0,0,0,0-0.1,0C8.6,34.8,7.3,36.2,7.3,37.9z"/>
		<path id="Path_111" class="st0" d="M10.5,43.3L10.5,43.3c-2.3-0.1-4.4-1.5-5.1-3.7c-0.1-0.2-0.4-0.4-0.6-0.4c-0.6,0-1.3,0-1.9,0
			c-0.3,0-0.7,0-1,0c-1.2,0-1.6-0.4-1.6-1.6c0-8.9,0-17.9,0-26.8c0-1.2,0.4-1.6,1.6-1.6H30c1.4,0,1.7,0.3,1.7,1.8c0,0.9,0,1.8,0,2.7
			v1.1l0.1,0c0.2,0,0.4,0,0.6,0h8.5c3-0.1,5.6,1.9,6.4,4.7c0.4,1.4,0.8,2.7,1.2,4.1l0.3,1.3c0.1,0.4,0.3,0.9,0.4,1.3
			c0.4,1,0.6,2,0.7,3.1c0.1,2.2,0.1,4.4,0.1,6.6c0,0.7,0,1.5,0,2.2c0,0.7-0.5,1.2-1.1,1.3c0,0-0.1,0-0.1,0c-0.4,0-0.9,0-1.3,0
			c-0.4,0-0.5,0.1-0.8,0.5c-0.4,0.9-1,1.7-1.7,2.4c-1.3,1.1-3,1.5-4.6,1.1c-1.7-0.5-3.1-1.7-3.7-3.4c-0.2-0.5-0.3-0.6-0.7-0.6
			c-6.6,0-13.1,0-19.7,0l0,0c-0.3,0-0.6,0.1-0.6,0.4C14.8,41.7,12.8,43.2,10.5,43.3z M3.6,38.6c0.4,0,0.8,0,1.2,0
			c0.4,0.1,0.8,0.3,1,0.7c0.7,2,2.5,3.3,4.6,3.4c2.1,0,3.9-1.4,4.6-3.4c0.1-0.5,0.6-0.8,1.1-0.7l0,0c6.6,0,13.1,0,19.7,0h0
			c0.7,0,0.9,0.5,1.1,0.9c0.6,1.5,1.8,2.6,3.4,3.1c1.5,0.4,3,0,4.1-1c0.7-0.6,1.2-1.4,1.6-2.2c0.2-0.5,0.7-0.8,1.2-0.8
			c0.5,0,0.9,0,1.3,0c0.5,0,0.8-0.3,0.8-0.8c0-0.7,0-1.5,0-2.2c0-2.2,0.1-4.4-0.1-6.6c-0.1-1-0.3-2-0.7-3c-0.1-0.4-0.3-0.9-0.4-1.3
			L48,23.5c-0.4-1.3-0.7-2.7-1.2-4.1c-0.7-2.6-3.2-4.4-5.9-4.4h-8.5c-0.2,0-0.4,0-0.6,0l-0.6,0v-1.6c0-0.9,0-1.8,0-2.7
			c0-1.2-0.1-1.3-1.3-1.3H1.9c-0.9,0-1.1,0.2-1.1,1.1c0,8.9,0,17.9,0,26.8c0,0.9,0.2,1.1,1.1,1.1c0.3,0,0.7,0,1,0
			C3.1,38.6,3.3,38.6,3.6,38.6L3.6,38.6z M41.5,41.1L41.5,41.1c-1.8,0-3.3-1.5-3.3-3.3c0-1.8,1.5-3.3,3.3-3.3h0
			c1.8,0,3.3,1.4,3.3,3.2c0,0,0,0,0,0c0,0.9-0.3,1.7-1,2.3C43.2,40.7,42.4,41.1,41.5,41.1z M41.5,35c-1.5,0-2.8,1.2-2.8,2.8
			c0,0,0,0,0,0.1c0,1.5,1.3,2.8,2.8,2.8l0,0c0.7,0,1.4-0.3,2-0.8c0.5-0.5,0.8-1.3,0.8-2C44.3,36.2,43.1,35,41.5,35
			C41.5,35,41.5,35,41.5,35L41.5,35z M10.3,41.1c-1.8,0-3.2-1.4-3.3-3.2l0,0c0-0.9,0.3-1.7,0.9-2.3c0.6-0.7,1.5-1.1,2.4-1.1
			c1.8,0,3.3,1.4,3.4,3.2c0,0.9-0.3,1.7-0.9,2.3c-0.6,0.7-1.4,1-2.3,1.1L10.3,41.1z M7.5,37.8c0,1.6,1.3,2.8,2.9,2.7
			c0.8,0,1.5-0.4,2-0.9c0.5-0.5,0.8-1.2,0.7-2c-0.1-1.5-1.3-2.8-2.9-2.7c-0.8,0-1.5,0.4-2,0.9C7.8,36.4,7.5,37.1,7.5,37.8L7.5,37.8z
			 M16.2,37c-0.6,0.1-1.1-0.3-1.3-0.9c-0.5-1.7-2.1-3-3.9-3.1c-2.6-0.3-4.2,0.8-5.2,3.3c-0.1,0.2-0.4,0.6-0.7,0.7
			c-0.6,0-1.1,0-1.7,0c-0.2,0-0.5,0-0.7,0H2.3v-0.2c0-0.4,0-0.8,0-1.2c0-1,0-1.9,0-2.8c-0.1-0.3,0-0.7,0.2-1c0.3-0.2,0.6-0.3,1-0.3
			c6.5,0,13,0,19.5,0h5.4c0,0,0.1,0,0.1,0c0.2,0,0.3,0,0.5,0.1c0.6,0.3,0.6,0.6,0.6,0.7l0,0c0,1.1,0,2.2,0,3.4V37h-4
			C22.6,37,19.3,37,16.2,37L16.2,37z M10.3,32.5c0.2,0,0.5,0,0.7,0c2,0.1,3.7,1.5,4.3,3.4c0.2,0.4,0.3,0.6,0.8,0.6h0
			c3.2,0,6.4,0,9.5,0h3.5v-0.8c0-1.2,0-2.3,0-3.4c-0.1-0.1-0.2-0.2-0.4-0.3c-0.1,0-0.1,0-0.2,0c-0.1,0-0.1,0-0.2,0h-5.4
			c-6.5,0-13,0-19.5,0c-0.3,0-0.5,0-0.6,0.1c-0.1,0.1-0.1,0.3-0.1,0.6c0,0.9,0,1.8,0,2.8c0,0.3,0,0.6,0,1h0.4c0.6,0,1.1,0,1.7,0
			c0.1-0.1,0.2-0.2,0.3-0.4C6.3,33.6,7.9,32.5,10.3,32.5z M47.1,37c-0.5,0-0.8-0.3-1-0.9c-0.5-1.7-2-2.9-3.7-3.1
			c-1.9-0.4-3.9,0.5-4.9,2.2c-0.2,0.3-0.4,0.7-0.6,1.1c-0.1,0.2-0.2,0.3-0.2,0.5l-0.1,0.1h-5.4v-1.5c0-1.6,0-3.1,0-4.7
			c0.1-0.4,0.4-0.6,0.8-0.7c5,0,10.1,0,15.1,0c0.3,0,0.8,0.4,0.8,0.7c0,1.6,0,3.2,0,4.8v1.3l-0.2,0.1C47.5,36.9,47.3,37,47.1,37
			L47.1,37z M41.5,32.4c0.3,0,0.6,0,1,0.1c1.9,0.2,3.6,1.5,4.1,3.4c0.2,0.5,0.3,0.6,0.8,0.5v-1c0-1.6,0-3.2,0-4.7
			c-0.1-0.1-0.2-0.2-0.3-0.2c-5,0-10.1,0-15.1,0c-0.1,0-0.2,0.1-0.3,0.2c0,1.5,0,3.1,0,4.7v1h4.6l0.2-0.4c0.2-0.4,0.4-0.8,0.6-1.1
			C38,33.4,39.7,32.4,41.5,32.4z M47.4,30.7L47.4,30.7L47.4,30.7z M28.4,29.9L28.4,29.9c-7.6,0-15.8,0-24.9,0c-0.3,0-0.7-0.1-1-0.3
			c-0.2-0.3-0.3-0.6-0.3-1c0-5.2,0-10.8,0-16.4c0-0.3,0.1-0.7,0.3-0.9c0.3-0.2,0.6-0.3,0.9-0.3c3.1,0,6.2,0,9.3,0H16h3.2
			c3,0,6.2,0,9.2,0h0c0.3,0,0.7,0.1,0.9,0.3c0.2,0.3,0.3,0.6,0.3,1c0,5.4,0,10.9,0,16.3c0,0.4-0.1,0.7-0.3,1
			C29.1,29.9,28.8,30,28.4,29.9L28.4,29.9z M16,29.4c4.3,0,8.4,0,12.4,0c0.3,0,0.5,0,0.6-0.1c0.1-0.2,0.2-0.4,0.1-0.6
			c0-5.4,0-10.9,0-16.3c0-0.4,0-0.6-0.1-0.7c-0.1-0.1-0.3-0.1-0.6-0.1c-3.1,0-6.2,0-9.2,0H16h-3.2c-3.1,0-6.2,0-9.3,0l0,0
			c-0.3,0-0.5,0-0.6,0.1S2.8,12,2.8,12.3c0,5.7,0,11.2,0,16.5c0,0.2,0,0.4,0.1,0.6c0.2,0.1,0.4,0.2,0.6,0.1
			C7.9,29.4,12,29.4,16,29.4L16,29.4z M32.1,28.5c-0.3,0-0.5-0.1-0.7-0.2c-0.2-0.2-0.3-0.5-0.2-0.8c0-2.3,0-4.6,0-6.9v-3
			c0-0.1,0-0.2,0-0.4l0-0.5h9.5c2.2-0.1,4.2,1.3,4.6,3.5c0.4,1.3,0.7,2.6,1,3.9c0.2,0.6,0.3,1.2,0.5,1.8l0.7,2.6l-0.3,0.1
			c-0.1,0-0.1,0-0.2,0c-0.1,0-0.2,0-0.3,0h-4.2C39.2,28.5,35.7,28.5,32.1,28.5L32.1,28.5z M31.7,17.5v3c0,2.3,0,4.6,0,6.9
			c0,0.1,0,0.3,0.1,0.4c0,0,0.1,0.1,0.3,0.1c3.5,0,7.1,0,10.6,0h4.2c0,0,0.1,0,0.1,0l-0.6-2.1c-0.2-0.6-0.3-1.2-0.5-1.8
			c-0.3-1.3-0.7-2.6-1-3.8c-0.4-1.9-2.2-3.2-4.2-3.1h-9.1v0C31.7,17.3,31.7,17.4,31.7,17.5L31.7,17.5z"/>
	</g>
	<g id="Group_71" transform="translate(40.477 26.359)">
		<path id="Path_112" class="st0" d="M-5.3,5.8c-0.4,0-0.9,0-1.3,0c-0.5,0-0.9,0.4-0.9,0.9c0,0,0,0.1,0,0.1c0,0.5,0.3,0.9,0.8,1
			c0,0,0.1,0,0.1,0c0.9,0,1.8,0,2.7,0c0.6,0,1-0.5,0.9-1.1c0-0.5-0.4-0.9-0.9-0.9C-4.4,5.8-4.9,5.8-5.3,5.8z"/>
		<path id="Path_113" class="st0" d="M-5.3,8.1c-0.5,0-0.9,0-1.4,0c-0.6,0-1.2-0.5-1.2-1.2c0,0,0,0,0-0.1c-0.1-0.7,0.4-1.2,1.1-1.3
			c0,0,0.1,0,0.1,0c0.3,0,0.6,0,1,0c0.1,0,0.3,0,0.4,0c0.1,0,0.3,0,0.4,0c0.3,0,0.7,0,1,0c0.7,0.1,1.2,0.7,1.1,1.4
			C-2.8,7.6-3.3,8-3.9,8.1C-4.4,8.1-4.8,8.1-5.3,8.1z M-6.1,6c-0.2,0-0.3,0-0.5,0C-7,6-7.3,6.4-7.3,6.7c0,0,0,0.1,0,0.1
			c0,0.4,0.2,0.7,0.6,0.7c0,0,0.1,0,0.1,0c0.9,0,1.8,0,2.7,0c0.4,0,0.7-0.4,0.7-0.8c0-0.4-0.3-0.7-0.7-0.7c-0.3,0-0.6,0-0.9,0
			c-0.1,0-0.3,0-0.4,0l0,0c-0.1,0-0.3,0-0.4,0C-5.9,6-6,6-6.1,6L-6.1,6z"/>
	</g>
</g>
</svg>
