<?xml version="1.0" encoding="utf-8"?>
<!-- Generator: Adobe Illustrator 23.0.1, SVG Export Plug-In . SVG Version: 6.00 Build 0)  -->
<svg version="1.1" id="Layer_1" xmlns="http://www.w3.org/2000/svg" xmlns:xlink="http://www.w3.org/1999/xlink" x="0px" y="0px"
	 viewBox="0 0 50 50" style="enable-background:new 0 0 50 50;" xml:space="preserve">
<style type="text/css">
	.st0{fill:#75AE09;}
</style>
<g id="Group_42" transform="translate(-296.637 121.049)">
	<g id="Path_45">
		<path class="st0" d="M339.3-100.5c-0.2-6.5-5.2-14.8-12.3-16.9c-0.9-0.3-1.9-0.5-2.8-0.5c-2-0.1-4-0.1-6,0.1
			c-3.2,0.4-6.1,2-8.3,4.3c-3.4,3.4-5.5,7.8-5.9,12.6c0,0.1,0,0.3,0,0.7c0.5-0.2,0.9-0.5,1.3-0.9c1.2-1.7,3.4-2.5,5.4-1.9
			c2.2,0.5,3.7,2.4,3.7,4.6c0.1,3.9,0.1,7.8,0,11.7c-0.1,2.2-1.7,4.1-3.8,4.5c-2.1,0.5-4.2-0.4-5.4-2.2c-0.2-0.3-0.6-0.6-0.9-0.8
			c-4.3-1.8-6.2-6.7-4.4-11c0.4-1,1-1.9,1.7-2.6c0.3-0.3,0.4-0.7,0.5-1.1c0.2-5.8,2.7-11.4,6.9-15.4c2.8-2.9,6.7-4.6,10.8-4.7
			c2.6,0,5.1-0.2,7.7,0.5c3.6,1.1,6.7,3.2,9,6.1c3.2,3.8,5,8.6,5.1,13.6c0,0.3,0.2,0.6,0.4,0.9c3.3,3.2,3.3,8.5,0.1,11.8
			c-0.8,0.8-1.8,1.5-2.9,1.9c-0.4,0.1-0.7,0.4-0.9,0.7c-0.6,0.9-1.6,1.7-2.6,2.1c-0.3,0.2-0.5,0.4-0.5,0.8c0,1.1-0.1,2.2-0.2,3.3
			c-0.6,2.4-2.8,4.1-5.3,4.1c-0.5,0-1.1,0-1.6,0c-1-0.2-2.1,0.2-2.8,0.9c-1.4,1.5-4.7,1.3-6.3,0c-1.1-0.7-1.3-2.2-0.6-3.3
			c0.2-0.3,0.5-0.5,0.8-0.7c2.1-1.4,5.5-1.1,6.9,0.8c0.2,0.2,0.4,0.3,0.6,0.3c1,0,2.1,0,3.1,0c1.9,0,3.4-1.5,3.5-3.4
			c0-0.2,0-0.4,0-0.6c0.1-1.3,0-2.2-1.5-2.7c-1.7-0.7-2.7-2.3-2.6-4.1c0-3.9,0-7.9,0-11.8c0.1-1.9,1.4-3.6,3.2-4.3
			c1.9-0.8,4-0.3,5.4,1.2C337.8-101.1,338.5-100.7,339.3-100.5z M330.6-92.7c0,1.8,0,3.7,0,5.5c0,0.1,0,0.1,0,0.2c0,1.7,1.4,3,3.1,3
			c1.9,0,3.2-1.3,3.2-3.4c0-3.5,0-7,0-10.5c0-0.2,0-0.5-0.1-0.7c-0.2-1.7-1.6-2.9-3.3-2.8c-1.7,0.1-3,1.6-2.9,3.3
			C330.6-96.3,330.6-94.5,330.6-92.7z M306.3-92.8c0,1.9-0.1,3.9,0,5.8c0,1.6,1.4,2.9,3,2.9c0,0,0,0,0,0c1.6,0.1,3-1.2,3.1-2.9
			c0.1-3.9,0.1-7.8,0-11.7c-0.1-1.3-1-2.4-2.3-2.7c-1.6-0.5-3.2,0.4-3.7,2c-0.1,0.3-0.1,0.5-0.1,0.8
			C306.2-96.6,306.3-94.7,306.3-92.8L306.3-92.8z M338.8-87.2c2.5-1.2,3.9-4,3.4-6.7c-0.3-2-2-4.2-3.4-4.4V-87.2z M304.3-87.3v-11.1
			c-2,1.1-3.3,3.2-3.3,5.5C300.9-90.6,302.2-88.4,304.3-87.3L304.3-87.3z M319.4-75.1c0.8,1.1,3.4,1.3,4.3,0.4
			c0.1-0.2,0.1-0.5-0.1-0.7C322.7-76.5,320.3-76.2,319.4-75.1L319.4-75.1z"/>
		<path class="st0" d="M321.9-71.7c-1.3,0-2.7-0.4-3.6-1.1c-0.6-0.4-1-1-1.1-1.8c-0.1-0.7,0-1.5,0.4-2.1c0.2-0.4,0.6-0.7,1-0.9
			c2.1-1.4,5.8-1.3,7.5,1c0,0,0.2,0.1,0.3,0.1c0,0,0,0,0,0c1,0,2.1,0,3.1,0c1.7,0,3-1.3,3-2.9c0-0.1,0-0.2,0-0.2c0-0.1,0-0.3,0-0.4
			c0.1-1.2,0-1.8-1.2-2.2c-1.9-0.7-3-2.6-2.9-4.6c0-3.9,0-7.8,0-11.8c0.1-2.1,1.5-4,3.5-4.7c2-0.8,4.4-0.3,5.9,1.3
			c0.3,0.4,0.7,0.8,1.2,1c-0.5-6.2-5.2-13.9-12-15.9c-0.9-0.3-1.8-0.4-2.7-0.5c-2-0.1-4-0.1-6,0.1c-3,0.4-5.9,1.9-8,4.2
			c-3.3,3.3-5.3,7.5-5.8,12.1c0.2-0.1,0.3-0.2,0.5-0.4c1.3-1.8,3.7-2.7,5.8-2.1c2.3,0.5,4,2.6,4,5.1c0.1,3.9,0.1,7.8,0,11.7
			c-0.1,2.4-1.8,4.5-4.2,5c-2.3,0.5-4.6-0.4-5.9-2.3c-0.2-0.3-0.4-0.5-0.7-0.6c-2.1-0.9-3.8-2.6-4.7-4.8c-0.9-2.2-0.9-4.6,0.1-6.7
			c0.4-1,1.1-1.9,1.8-2.7c0.2-0.2,0.3-0.5,0.3-0.8c0.2-6,2.7-11.6,7-15.7c2.9-3,6.9-4.7,11.1-4.8l0.8,0c2.3,0,4.7-0.1,7,0.6
			c3.7,1.1,6.8,3.3,9.2,6.3c3.2,3.9,5.1,8.8,5.2,13.8c0,0.2,0.1,0.4,0.3,0.6c3.4,3.4,3.5,9,0.1,12.4c-0.9,0.9-1.9,1.6-3,2
			c-0.3,0.1-0.5,0.3-0.7,0.5c-0.7,1-1.7,1.8-2.8,2.2c-0.1,0.1-0.2,0.2-0.2,0.4c0,1-0.1,2.2-0.2,3.3c-0.6,2.7-3,4.5-5.7,4.5
			c0,0,0,0,0,0c-0.5,0-1.1,0-1.6,0c-0.9-0.1-1.9,0.2-2.5,0.8C324.4-72.1,323.2-71.7,321.9-71.7z M321.8-77.6c-1,0-2,0.3-2.8,0.8
			c-0.3,0.2-0.5,0.4-0.7,0.6c-0.3,0.4-0.4,0.9-0.3,1.4c0.1,0.5,0.4,0.9,0.8,1.2c1.4,1.1,4.4,1.3,5.8,0c0.8-0.8,2-1.2,3.2-1.1
			c0.5,0,1,0,1.5,0c0,0,0,0,0,0c2.3,0,4.3-1.5,4.8-3.8c0.1-1,0.2-2.1,0.2-3.2c0.1-0.5,0.4-0.9,0.7-1.1c1-0.4,1.9-1.1,2.5-1.9
			c0.3-0.4,0.7-0.7,1.1-0.9c1-0.4,1.9-1,2.7-1.8c3.1-3.1,3-8.1-0.1-11.1c-0.3-0.3-0.5-0.7-0.5-1.2c-0.1-4.9-1.8-9.6-5-13.3
			c-2.2-2.9-5.3-4.9-8.7-6c-2.2-0.6-4.5-0.6-6.7-0.5l-0.8,0c-4,0.1-7.7,1.7-10.5,4.5c-4.2,4-6.6,9.3-6.8,15.1c0,0.5-0.3,1-0.6,1.4
			c-0.7,0.7-1.3,1.6-1.7,2.5c-0.8,1.9-0.8,4.1-0.1,6.1c0.8,2,2.3,3.5,4.2,4.3c0.5,0.2,0.8,0.5,1.1,0.9c1.1,1.6,3,2.4,4.9,2
			c2-0.4,3.4-2.1,3.5-4.1c0.1-3.9,0.1-7.8,0-11.7c0-2-1.4-3.7-3.3-4.2c-1.9-0.5-3.8,0.2-4.9,1.8l-0.1,0.1c-0.4,0.4-0.9,0.7-1.4,1
			l-0.7,0.3l0-1.1c0-0.2,0-0.3,0-0.4c0.4-4.8,2.6-9.4,6.1-12.8c2.2-2.4,5.2-4,8.5-4.5c2-0.2,4.1-0.2,6.1-0.1c1,0,2,0.2,2.9,0.5
			c7.6,2.3,12.5,10.8,12.6,17.3l0,0.5l-0.5-0.1c-0.9-0.1-1.8-0.7-2.3-1.4c-1.2-1.3-3.1-1.8-4.8-1.1c-1.7,0.6-2.8,2.2-2.9,3.9
			c0,3.9,0,7.9,0,11.8c-0.1,1.6,0.8,3.1,2.4,3.7c1.9,0.7,1.9,1.9,1.8,3.2c0,0.1,0,0.2,0,0.3c0,0.1,0,0.2,0,0.3
			c-0.1,2.1-1.8,3.8-3.9,3.8c-1.1,0-2.1,0-3.2,0c0,0,0,0,0,0c-0.3,0-0.7-0.1-0.9-0.4C324.6-77,323.2-77.6,321.8-77.6z M322-73.7
			c-0.1,0-0.2,0-0.3,0c-0.8,0-1.9-0.3-2.4-1h-0.7l0.6-0.7c0.5-0.7,1.5-1.1,2.5-1.2c1-0.1,1.9,0.2,2.4,0.7c0.3,0.4,0.3,0.9,0.2,1.2
			l-0.1,0.1C323.7-74,322.9-73.7,322-73.7z M320.1-75.1c0.4,0.3,1,0.5,1.7,0.5c0.7,0,1.3-0.1,1.7-0.4c0-0.1,0-0.2,0-0.2
			c-0.3-0.3-0.9-0.5-1.7-0.4C321-75.6,320.5-75.4,320.1-75.1z M333.7-83.6C333.7-83.6,333.7-83.6,333.7-83.6c-2,0-3.5-1.5-3.5-3.4
			l0-7.8c0-1.1,0-2.2,0-3.3c-0.1-1.9,1.4-3.6,3.3-3.7c1.9-0.1,3.6,1.3,3.8,3.2c0,0.2,0.1,0.5,0.1,0.7l0,1.8c0,2.9,0,5.8,0,8.7
			c0,1.2-0.4,2.2-1.1,2.9C335.6-83.9,334.7-83.6,333.7-83.6z M333.7-100.9c-0.1,0-0.1,0-0.2,0c-1.5,0.1-2.6,1.3-2.5,2.8
			c0,1.1,0,2.2,0,3.4l0,7.8c0,1.4,1.2,2.5,2.6,2.6c0.8,0,1.4-0.2,1.9-0.7c0.5-0.5,0.8-1.3,0.8-2.3c0-2.9,0-5.8,0-8.7l0-1.8
			c0-0.2,0-0.4-0.1-0.6C336.2-99.9,335.1-100.9,333.7-100.9z M309.5-83.6c-0.1,0-0.1,0-0.2,0c-0.9,0-1.7-0.3-2.4-0.9
			c-0.7-0.6-1-1.5-1.1-2.4c-0.1-1.4,0-2.7,0-4.1c0-0.6,0-1.2,0-1.8c0-0.6,0-1.2,0-1.8c0-1.3,0-2.6,0-3.9c0-0.3,0.1-0.6,0.1-0.9
			c0.5-1.8,2.5-2.9,4.3-2.3c1.4,0.3,2.5,1.6,2.6,3.1c0.1,4.5,0.1,8.2,0,11.7C312.8-85,311.3-83.6,309.5-83.6z M309.3-84.5
			c1.4,0,2.6-1.1,2.7-2.4c0.1-3.5,0.1-7.2,0-11.7c-0.1-1.1-0.8-2.1-1.9-2.3c-1.4-0.4-2.8,0.4-3.2,1.7c-0.1,0.2-0.1,0.4-0.1,0.7
			c-0.1,1.3,0,2.6,0,3.9c0,0.6,0,1.2,0,1.8v0c0,0.6,0,1.2,0,1.8c0,1.3,0,2.7,0,4.1C306.8-85.6,307.9-84.5,309.3-84.5
			C309.3-84.5,309.3-84.5,309.3-84.5z M338.4-86.5v-12.4l0.5,0.1c1.6,0.2,3.4,2.6,3.7,4.8c0.5,2.9-1,5.9-3.6,7.2L338.4-86.5z
			 M339.2-97.7v9.7c1.9-1.3,2.9-3.6,2.5-5.9C341.5-95.5,340.3-97.2,339.2-97.7z M304.7-86.8h-0.6l-0.1-0.1c-2.2-1.2-3.6-3.6-3.5-6.1
			c0-2.4,1.3-4.7,3.5-5.8l0.7-0.3V-86.8z M303.8-97.6c-1.5,1.1-2.4,2.8-2.4,4.7c-0.1,1.9,0.8,3.8,2.4,4.9V-97.6z"/>
	</g>
</g>
</svg>
