<?xml version="1.0" encoding="utf-8"?>
<!-- Generator: Adobe Illustrator 23.0.1, SVG Export Plug-In . SVG Version: 6.00 Build 0)  -->
<svg version="1.1" id="Layer_1" xmlns="http://www.w3.org/2000/svg" xmlns:xlink="http://www.w3.org/1999/xlink" x="0px" y="0px"
	 viewBox="0 0 50 50" style="enable-background:new 0 0 50 50;" xml:space="preserve">
<style type="text/css">
	.st0{fill:#78AF0F;}
</style>
<g id="Group_45" transform="translate(-418.5 -981.005)">
	<g id="Path_48">
		<path class="st0" d="M443.5,991.9c-4.3,0-7.8,3.5-7.8,7.8c0,4.3,3.5,7.8,7.8,7.8s7.8-3.5,7.8-7.8
			C451.4,995.4,447.9,991.9,443.5,991.9z M443.5,1004.9c-2.8,0-5.2-2.3-5.2-5.2c0-2.8,2.3-5.2,5.2-5.2s5.2,2.3,5.2,5.2
			C448.7,1002.6,446.4,1004.9,443.5,1004.9z M443.5,991.9c-4.3,0-7.8,3.5-7.8,7.8c0,4.3,3.5,7.8,7.8,7.8s7.8-3.5,7.8-7.8
			C451.4,995.4,447.9,991.9,443.5,991.9z M443.5,1004.9c-2.8,0-5.2-2.3-5.2-5.2c0-2.8,2.3-5.2,5.2-5.2s5.2,2.3,5.2,5.2
			C448.7,1002.6,446.4,1004.9,443.5,1004.9z M443.5,991.9c-4.3,0-7.8,3.5-7.8,7.8c0,4.3,3.5,7.8,7.8,7.8s7.8-3.5,7.8-7.8
			C451.4,995.4,447.9,991.9,443.5,991.9z M443.5,1004.9c-2.8,0-5.2-2.3-5.2-5.2c0-2.8,2.3-5.2,5.2-5.2s5.2,2.3,5.2,5.2
			C448.7,1002.6,446.4,1004.9,443.5,1004.9z"/>
		<path class="st0" d="M457.3,986.7c-3.7-3.7-8.6-5.7-13.8-5.7c-10.8,0-19.5,8.8-19.5,19.5c0,10.5,17.8,28.7,18.6,29.5l0.9,1l1-1
			c0.8-0.8,18.6-19,18.6-29.5C463,995.3,461,990.4,457.3,986.7z M443.5,1027.2c-3.7-3.9-16.9-18.5-16.9-26.7
			c0-9.3,7.6-16.9,16.9-16.9c4.5,0,8.7,1.8,11.9,4.9c3.2,3.2,4.9,7.4,4.9,11.9C460.4,1008.6,447.2,1023.2,443.5,1027.2z"/>
	</g>
</g>
</svg>
