<?xml version="1.0" encoding="UTF-8"?>
<!-- Generator: Adobe Illustrator 23.0.1, SVG Export Plug-In . SVG Version: 6.00 Build 0)  -->
<svg version="1.1" id="Layer_1" xmlns="http://www.w3.org/2000/svg" xmlns:xlink="http://www.w3.org/1999/xlink" x="0px" y="0px" viewBox="0 0 157 112.8" style="enable-background:new 0 0 157 112.8;" xml:space="preserve">
<style type="text/css">
	.st0{enable-background:new    ;}
	.st1{fill:#75AE09;}
</style>
<g class="st0">
	<path class="st1" d="M74.4,43.2c0,15-3.6,28.8-11.4,40.8c-7.8,12-19.2,21.6-34.8,28.8l-4.2-8.4c9-3.6,17.4-9.6,24-18   c6.6-8.4,9.6-16.8,9.6-25.2c-0.6,0-1.2,0.6-1.2,0.6C51,64.8,45.6,66,39.6,66c-6,0-11.4-1.2-16.2-4.2c-5.4-3-9.6-7.2-12.6-12   C7.8,44.4,6.6,39,6.6,33s1.8-12.6,4.2-16.2c3-5.4,7.2-9.6,12-12.6C28.2,1.2,33.6,0,39.6,0c6,0,11.4,1.2,16.8,4.2   c4.8,3,10.2,7.8,14.4,17.4C73.2,27.6,74.4,33,74.4,43.2z M152.4,43.2c0,15-3.6,28.8-11.4,40.8c-7.8,12-19.2,21.6-34.8,28.8   l-4.2-8.4c9.6-3.6,17.4-9.6,24.6-18c6.6-8.4,9-16.8,9-25.2c0,0-0.6,0.6-1.2,0.6c-4.8,3-10.8,4.2-16.2,4.2c-6,0-11.4-1.2-16.8-4.2   c-4.8-3-9-7.2-12-12C87,45.6,85.2,39,85.2,33s1.2-11.4,4.2-16.2c3-5.4,7.2-9.6,12-12.6c5.4-3,10.8-4.2,16.8-4.2   c5.4,0,11.4,1.2,16.2,4.2c5.4,3,10.8,7.8,14.4,17.4C151.2,27.6,152.4,33.6,152.4,43.2z"/>
</g>
</svg>