<svg id="Group_102" data-name="Group 102" xmlns="http://www.w3.org/2000/svg" width="79.859" height="75.983" viewBox="0 0 79.859 75.983">
  <path id="Path_115" data-name="Path 115" d="M27.612,39.338l-.053.042.1-.011.032-.074ZM86.594,46.5a.378.378,0,0,0-.042.1c.021-.032.053-.032.085-.042l.032-.074Zm-.074.106c-.021.011-.021.053-.021.074a.979.979,0,0,1,.053-.085C86.541,46.583,86.53,46.593,86.519,46.6Zm.074-.106a.378.378,0,0,0-.042.1c.021-.032.053-.032.085-.042l.032-.074Zm-.074.106c-.021.011-.021.053-.021.074a.979.979,0,0,1,.053-.085C86.541,46.583,86.53,46.593,86.519,46.6ZM75.237,95.961a.809.809,0,0,0-.117.085l.159-.032Zm-2.018.361a.01.01,0,0,1-.011.011h.021v-.011Zm-37.193-68.8a2.039,2.039,0,0,0,.159.149c.011,0,.032.011.042.011s.011-.021.011-.042A.83.83,0,0,1,36.026,27.524Zm-.2-.244h-.011l-.032.032c.042.032.085.074.117.1A.793.793,0,0,1,35.824,27.28Zm-5.5,6.2-.042.042h.074C30.343,33.505,30.321,33.495,30.321,33.484Zm-.361.372v.011h.021v-.032Zm-.34-.011c0,.011,0,.011-.011.021h.021c0-.011.011-.011.011-.021Zm-2.008,5.492-.053.042.1-.011.032-.074ZM18.636,59.575c-.011.011-.011.032-.021.042h.042c.011-.011.011-.032.021-.053C18.657,59.565,18.646,59.565,18.636,59.575Zm-.351.351a.081.081,0,0,0-.021.042.46.46,0,0,0,.053-.011v-.042A.039.039,0,0,0,18.285,59.926ZM15.2,48.633l-.064.032c.032,0,.074.011.117.011v-.1Zm-.053-.425c.021.011.032.032.053.042s.032.021.042.042v-.074C15.215,48.219,15.183,48.208,15.151,48.208Zm-1.36.8c-.011.011-.011.021-.021.032v.011c.011-.011.032-.021.042-.032C13.8,49,13.8,49,13.791,49Z" transform="translate(-11.518 -24.082)" fill="#df4747"/>
  <path id="Path_116" data-name="Path 116" d="M91.283,64.15a4.581,4.581,0,0,0,.223-1.519,20.556,20.556,0,0,0-.106-2.56,19.413,19.413,0,0,1-.329-3.41,11.861,11.861,0,0,0-.255-2.879,2.488,2.488,0,0,0-.329-.967,5.881,5.881,0,0,1-.7-1.742.636.636,0,0,1,.117-.467c.3-.457.329-.457.234-.669a19.664,19.664,0,0,1-.892-3.113,5.386,5.386,0,0,0-.977-1.976,8.339,8.339,0,0,1-.5-.7,6.572,6.572,0,0,0-.531-.871c-.818-.945-1.572-1.944-2.433-2.858-.255-.276-.127-.521-.042-.829a37.016,37.016,0,0,1-4.77-5.354c-.361,0-.7-.011-1.041,0-.457.011-.7.3-.892.733-.372-.032-.765-.042-1.158-.085a.383.383,0,0,1-.234-.212.417.417,0,0,1,.085-.308.946.946,0,0,1,.754-.329,1.225,1.225,0,0,0,.871-.478c.149-.127.106-.563-.053-.616a6.294,6.294,0,0,0-.967-.287,8.009,8.009,0,0,0-1.009-.032c-.4-.011-.51-.106-.574-.467-.127-.765-.266-.945-.86-1.052-.446-.085-.892-.17-1.339-.266A2.858,2.858,0,0,1,72,29.9l.032.042c-.5-.255-.807-.776-1.37-.967-.584-.191-1.179-.4-1.753-.637s-1.126-.531-1.7-.776c-.425-.17-.85-.319-1.285-.457a3.965,3.965,0,0,0-2.507-.064,16.383,16.383,0,0,0-1.742.669c-.181.074-.276-.053-.276-.266s-.159-.287-.34-.276a1.14,1.14,0,0,0-.5.106,2.1,2.1,0,0,1-1.328.149,12.451,12.451,0,0,0-2.507-.393,3.308,3.308,0,0,1-.988-.255c-.032-.011-.064-.223-.021-.255.308-.255.149-.51.053-.765a1.339,1.339,0,0,1-.212-.212c-.159-.223-.159-.276.1-.361.308-.106.3-.117.393-.319-1.243-.106-2.486-.223-3.729-.329a3.218,3.218,0,0,0-1.349.127,1.124,1.124,0,0,1-.807-.064,6.71,6.71,0,0,0-1.328-.3,1.773,1.773,0,0,0-.669,0,9.281,9.281,0,0,1-2.029.149,6.684,6.684,0,0,1-2.008.053,2.248,2.248,0,0,0-1.328.181c-.744.3-1.487.563-2.242.807a6.927,6.927,0,0,0-2.157.967,2.293,2.293,0,0,1-.786.308,3.828,3.828,0,0,0-1.657.7.793.793,0,0,0,.074.127c-.032-.021-.074-.064-.117-.1l.032-.032c-.659.159-1.179.744-1.923.563a1.919,1.919,0,0,0-.892.776.63.63,0,0,1-.531.382,3.606,3.606,0,0,0-1.753.627,1.584,1.584,0,0,1-1.455.287.906.906,0,0,0-.489.074c-.871.266-1.742.521-2.592.839a13.621,13.621,0,0,0-1.53.754,34.133,34.133,0,0,0-3.091,2.146A4.867,4.867,0,0,0,20.308,35.4a19.192,19.192,0,0,1-1.6,2.21c-.489.563-.892,1.19-1.349,1.774A2.489,2.489,0,0,0,16.8,40.8a1.18,1.18,0,0,1-.382.9c-.329.266-.085.807-.5,1.052-.117.074-.159.3-.181.457a2.505,2.505,0,0,1-.244.818,10.776,10.776,0,0,0-.5,1.264c-.223.648-.436,1.3-.616,1.955s-.329,1.307-.478,1.976c.011-.011.011-.021.021-.032s.011,0,.021.011a1.71,1.71,0,0,1,1.328-.351l.064-.032.053-.053c0-.1-.011-.191-.011-.287-.011-.021-.032-.032-.042-.042s-.032-.032-.053-.042c-.064-.011-.127-.021-.181-.032.011-.032.021-.064.032-.106a1.9,1.9,0,0,0,.149.138c.032,0,.064.011.1.011v.074a.15.15,0,0,1,.064.212.191.191,0,0,1-.053.074v.1c-.042,0-.085-.011-.117-.011-.149.1-.319.17-.467.287a.837.837,0,0,1-.86.064c-.011.011-.032.021-.042.032a.514.514,0,0,0-.149.234,4.255,4.255,0,0,0,.042,1.678,1.839,1.839,0,0,1-.351,1.742,4.371,4.371,0,0,0-1.02,3.973,3.263,3.263,0,0,1-.521,2.751,1.278,1.278,0,0,0-.223.807c-.011.977-.032,1.944-.032,2.921A1.607,1.607,0,0,0,11.8,64a3.29,3.29,0,0,1,.255,1.838,9.015,9.015,0,0,0-.032,1.2,1.4,1.4,0,0,0,.287.967,3.06,3.06,0,0,1,.563,1.222.613.613,0,0,0,.8.446.422.422,0,0,1,.531.319,6.328,6.328,0,0,1,.414,2.167c-.011.074-.117.149-.181.2-.021.021-.117-.032-.138-.074-.266-.5-.531-1.009-.8-1.509-.053-.117-.351-.085-.446.042a1.054,1.054,0,0,0-.3.776,8.754,8.754,0,0,0,.478,1.987,7.069,7.069,0,0,0,1.487,2.284,2.978,2.978,0,0,1,.8,1.285,3.136,3.136,0,0,0,.117.5c.372.637.754,1.264,1.126,1.9a11.108,11.108,0,0,1,.669,1.2,8.353,8.353,0,0,0,1.679,2.56,1.274,1.274,0,0,1,.329.584,2.291,2.291,0,0,0,.3.606,11.776,11.776,0,0,0,2.337,1.955,7.646,7.646,0,0,1,2.327,1.4,54.649,54.649,0,0,0,5.29,3.474c.308.159.584.361.882.531a1.917,1.917,0,0,1,.829.839,1.441,1.441,0,0,0,.935.68,6.243,6.243,0,0,1,2.135,1.041,1.222,1.222,0,0,0,.457.223c1.424.266,2.581,1.211,3.952,1.625a.547.547,0,0,1,.351.531.375.375,0,0,0,.117.287,2.276,2.276,0,0,0,.457.223,6.163,6.163,0,0,1,2.645,1.115.286.286,0,0,0,.159.053,5.561,5.561,0,0,1,1.891.775,2.3,2.3,0,0,0,.818.255,14.517,14.517,0,0,0,3.378.51,11.568,11.568,0,0,0,3.58.17h.51c2.921,0,5.832-.011,8.743-.011.627-.011,1.254-.053,1.88-.021a15.894,15.894,0,0,0,5.567-.7,1.236,1.236,0,0,0,.117-.329,1.175,1.175,0,0,1,.988-1.222c.712-.191,1.466-.234,2.178-.436.765-.223,1.477-.584,2.252-.786a2.387,2.387,0,0,0,.744-.457c-.319.053-.637.1-.945.17a1.921,1.921,0,0,1-.945.106v.011H73.34c-.021.043-.032.106-.074.128a5.567,5.567,0,0,1-2.911.542.327.327,0,0,1-.127-.085c.042-.085.074-.223.149-.244a8.468,8.468,0,0,1,2.964-.34.01.01,0,0,0,.011-.011h.011c.064-.1.1-.212.17-.266a3.18,3.18,0,0,1,.765-.372c.563-.138,1.03-.51,1.572-.659s1.115-.244,1.679-.372a4.32,4.32,0,0,0,.977-.287,8.012,8.012,0,0,1,1.763-.659,1.794,1.794,0,0,0,1.1-.744,4.232,4.232,0,0,1,.425-.531,37.939,37.939,0,0,0,3.028-3.24,4.457,4.457,0,0,1,1.5-1.126.883.883,0,0,0,.393-.308,20.63,20.63,0,0,1,1.509-2.072A5.569,5.569,0,0,0,89.52,81.9a4.482,4.482,0,0,1,.181-1.87,9.984,9.984,0,0,0,.181-1.009,2.137,2.137,0,0,1,.149-.659,12.278,12.278,0,0,0,.85-2.412,3.062,3.062,0,0,0,.138-1.848,1.227,1.227,0,0,1-.053-.669,1.291,1.291,0,0,0-.234-1.285.457.457,0,0,1,.085-.616.766.766,0,0,0,.329-.574,6.524,6.524,0,0,1,.011-1.02,11.627,11.627,0,0,0-.011-3.931A3.687,3.687,0,0,1,91.283,64.15ZM14.625,65.818a.305.305,0,0,1-.1.138c-.085-.053-.223-.1-.244-.17-.127-.361-.212-.733-.319-1.1-.011,0-.032.011-.042.011-.011-.053-.032-.106-.042-.159s-.053-.117-.074-.181c.053.1.1.2.149.3,0,.011.011.021.011.032.1-.021.191-.053.287-.074.223-.042.372.042.382.2C14.635,65.149,14.635,65.489,14.625,65.818Zm4.345-8.7a1.3,1.3,0,0,1,.287.1c-.1.021-.2.042-.308.074a.557.557,0,0,0-.117-.106C18.885,57.16,18.927,57.107,18.97,57.118Zm-.361-1.509c.032.042.074.085.074.127,0,.138-.074.191-.2.159-.042-.011-.085-.106-.085-.106A1.128,1.128,0,0,1,18.608,55.609Zm-1.891-.691c.021-.117.159-.212.181-.17.106.255-.042.212-.181.17-.011.011-.011.011-.011.021l-.021.053-.021-.085C16.686,54.908,16.7,54.919,16.717,54.919Zm-.637-.977c.1-.085.191-.053.244.074.053.17-.032.329-.2.329a.243.243,0,0,1-.191-.17A.384.384,0,0,1,16.08,53.941Zm-.393-.637.032-.032.053-.074-.011.127a.115.115,0,0,1-.074-.021,1.962,1.962,0,0,1-.149.149C15.485,53.24,15.591,53.293,15.687,53.3Zm.021,5.907a.863.863,0,0,1,.563-.351,3.874,3.874,0,0,0,1.785-.457,3.208,3.208,0,0,1,1.349-.042.175.175,0,0,1,.127.1c.021.1.053.234.011.287-.159.17-.372.287-.51.467a2.951,2.951,0,0,0-.266.552c.011-.011.021-.011.042-.011-.011.021-.011.042-.021.053a2.776,2.776,0,0,1,.3,0c.191.011.361.17.329.287-.106.372-.2.754-.329,1.126-.085.234-.319.287-.552.3a.8.8,0,0,1-.159-.011c-.17-.021-.34-.053-.393-.234a.471.471,0,0,1,.085-.308,1.217,1.217,0,0,1,.234-.234.656.656,0,0,0,.149-.584.46.46,0,0,1-.053.011.081.081,0,0,1,.021-.042c-.159.021-.319.064-.478.085-.478.074-.542-.011-.425-.552.011-.053.021-.127-.011-.149a.148.148,0,0,0-.266.032,2.944,2.944,0,0,0-.276.967,2.139,2.139,0,0,0,.3.967,1.319,1.319,0,0,0,.967.627c.276.042.563.1.839.159a.438.438,0,0,1,.212.563,2.793,2.793,0,0,0-.5,1.944,4.457,4.457,0,0,1-.053.839.166.166,0,0,1-.266.117c-.191-.117-.436-.223-.531-.393a14.2,14.2,0,0,1-1.987-4.143,5.012,5.012,0,0,0-.393-.935c.287-.34-.117-.467-.181-.616C15.5,59.466,15.6,59.338,15.708,59.211Zm3.8-15.478c-.011-.085.042-.255.106-.276a1.261,1.261,0,0,1,.489-.053c.021,0,.042.064.064.106-.138.085-.276.181-.4.276S19.522,43.86,19.511,43.732ZM15.1,66.095a1.1,1.1,0,0,1,.786.542,12.65,12.65,0,0,0,.85,1.455,6.139,6.139,0,0,1,.691,1.54,4.028,4.028,0,0,0,.637,1.19A5.58,5.58,0,0,1,18.725,72a1.5,1.5,0,0,1,.053,1.115c.011,0,.011.011.021.011.011.032.011.074.021.106a1.9,1.9,0,0,1,.138.149c-.032.021-.064.032-.1.053-.011-.074-.032-.138-.042-.2l-.064-.064c.011-.021.011-.032.021-.053a.9.9,0,0,1-.4-.5,1.605,1.605,0,0,0-.616-.786,3.724,3.724,0,0,1-1.572-2.348,1.817,1.817,0,0,0-.266-.606,8.9,8.9,0,0,1-.563-.839A2.181,2.181,0,0,1,15.1,66.095Zm6.544,16.211a3.692,3.692,0,0,1-2.38-1.519,31.541,31.541,0,0,1-3.644-5.758,2.254,2.254,0,0,1-.287-1.307,1.416,1.416,0,0,1,.255-.4,1.22,1.22,0,0,1,.51.138,2.6,2.6,0,0,1,.51.669,20.12,20.12,0,0,0,2.921,4.186,4.037,4.037,0,0,0,.584.616A3.416,3.416,0,0,1,21.2,80.213a1.4,1.4,0,0,0,.584.606,1.013,1.013,0,0,1,.446,1.041A.489.489,0,0,1,21.647,82.306Zm4.887-42.324a1.451,1.451,0,0,1-.159.223c0,.032.011.053.011.085a.081.081,0,0,0-.042-.021c-.181.276-.308.595-.68.7a7.252,7.252,0,0,0-.8.308,2.181,2.181,0,0,1-1.328.17,2.816,2.816,0,0,0-.839.053.385.385,0,0,0-.159.648c.064.085.181.149.223.244a.389.389,0,0,1-.032.308c-.042.085-.159.138-.255.2a.287.287,0,0,1-.159.032,9.589,9.589,0,0,0-2.688-.361c-.053,0-.106-.053-.159-.074.127-.393.467-.478.786-.531.382-.064.786-.053,1.307-.085-.255-.223-.414-.351-.563-.478a1.212,1.212,0,0,1,.117-.117C21.5,41,22,41.183,22.4,40.906a4.049,4.049,0,0,1,1.1-.425,10.663,10.663,0,0,0,1.285-.414,1.559,1.559,0,0,1,1.551.191c.011-.021.021-.032.032-.053-.011-.074-.011-.159-.021-.244,0-.042.021-.138.053-.149C26.533,39.77,26.6,39.833,26.533,39.982Zm1.254-.425-.1.011.053-.042.074-.042Zm-1.052-3.591a1.355,1.355,0,0,1-1.147.117.327.327,0,0,1-.191-.244.857.857,0,0,1,.159-.8,2.238,2.238,0,0,1,1.275-.765,1.909,1.909,0,0,0,1.137-.372c.106.425.181.691.255,1.009C27.734,35.265,27.256,35.637,26.735,35.966Zm4.271-2.645a.623.623,0,0,1-.542.34l-.011.011c0,.011.021.021.032.042h-.074c-.1.106-.191.2-.3.308v.032h-.021a.581.581,0,0,1-.085.584c-.085.127-.361.191-.414.085a.383.383,0,0,1-.053-.276,2.072,2.072,0,0,1,.223-.393h-.021c.011-.011.011-.011.011-.021-.255.074-.521.17-.786.223a.431.431,0,0,1-.287-.085c-.074-.053.053-.351.17-.414a7.767,7.767,0,0,1,2.008-.8c.053-.011.149.021.159.053A.6.6,0,0,1,31.006,33.321Zm2.433-.127a.452.452,0,0,1-.085-.606c.255-.4.467-.425.85-.234.074.032.1.17.149.287a2.657,2.657,0,0,1-.17.457A.528.528,0,0,1,33.439,33.194Zm1.041,4.568c-.1.053-.191.106-.287.149-.127.053-.244.021-.255-.1a.348.348,0,0,1,.159-.244.775.775,0,0,1,.319-.042c.032.032.1.064.117.106A.155.155,0,0,1,34.48,37.762Zm.1,19.622h-.021l.011-.011h.011Zm.085,2.592.064-.1.042.106Zm.276-2.964c0,.011-.011.021-.011.032H34.9v-.021c.011,0,.021-.011.032-.011.011-.021.011-.053.021-.085C35.053,56.958,35.043,56.98,34.937,57.012Zm.754-28.163a.206.206,0,0,1-.117-.1c-.053-.127.1-.361.234-.329.074.011.138.127.2.2C36.02,28.785,35.871,28.891,35.691,28.849Zm.935-.574c-.234-.042-.329-.181-.266-.4-.011,0-.032-.011-.042-.011a2.04,2.04,0,0,1-.159-.149.83.83,0,0,0,.212.117c0,.021-.011.032-.011.042.138.042.276.064.4.117.032.011.064.106.053.127C36.764,28.179,36.679,28.286,36.626,28.275Zm1.6-.234c-.2.085-.414.17-.627.244-.032,0-.074-.074-.117-.106,0-.159.319-.372.659-.425.021,0,.074.074.1.127S38.251,28.031,38.23,28.041Zm.648-.521c-.042-.011-.106-.032-.106-.042,0-.042.021-.117.042-.117C38.942,27.34,38.963,27.4,38.878,27.521Zm2.146,1.222c.011-.032.032-.1.042-.1.043,0,.117.021.117.042C41.194,28.8,41.13,28.817,41.024,28.743Zm.021-.606c-.021-.011-.042-.064-.064-.106a1.16,1.16,0,0,1,.117-.064c.042.011.117.021.117.053C41.247,28.116,41.173,28.158,41.045,28.137Zm.839.606.064-.085.032.1Zm2.135-2.56c-.074-.042-.106-.159-.159-.244a1,1,0,0,1,.159-.064,1.188,1.188,0,0,1,1.094.3c.011,0,.032-.011.042-.011a1.549,1.549,0,0,1,.2.074c-.074-.021-.159-.042-.244-.064A1.238,1.238,0,0,1,44.02,26.182ZM46.261,33.3c-.457.212-.914.4-1.37.584-.074.021-.223-.074-.287-.149a.357.357,0,0,1-.032-.308,1.307,1.307,0,0,1,1.71-.68c.074.021.1.17.138.266C46.367,33.109,46.346,33.257,46.261,33.3Zm4.664-7.5a.716.716,0,0,1-.637-.1c-.032-.021-.032-.085-.042-.117.085-.181.478-.2.765-.021a.146.146,0,0,1,.042.127A.248.248,0,0,1,50.925,25.8Zm8.626,5.248a1.4,1.4,0,0,1,.319-.085c.138.032.3.053.457.1.106.042.117.138.053.244a.19.19,0,0,1-.127.1,2.465,2.465,0,0,1-.467-.064C59.583,31.282,59.445,31.09,59.551,31.048ZM54.76,26.182a.491.491,0,0,1,.266.064c.011.011.011.106-.011.117-.085.021-.191.064-.266.032C54.59,26.331,54.6,26.225,54.76,26.182Zm-1.392-.021c-.361-.042-.722-.074-1.084-.106-.032-.011-.1-.085-.085-.106a.175.175,0,0,1,.106-.106,1.232,1.232,0,0,1,1.052.308l.011.011H53.4c.127-.011.138.011.032.074C53.421,26.235,53.4,26.193,53.368,26.161Zm2.518,4.759c-.786-.042-1.562-.106-2.337-.181-.032,0-.074-.085-.064-.138s.053-.117.085-.117c.722.021,1.455.032,2.178.074a1.618,1.618,0,0,1,.457.191C56.077,30.825,55.971,30.931,55.886,30.92Zm.914.988c-.085-.042-.181-.074-.266-.117a.792.792,0,0,1,.127-.074.267.267,0,0,1,.159.011.925.925,0,0,1,.117.1C56.9,31.855,56.842,31.876,56.8,31.908Zm7.628,2.836c-.032.042-.106.1-.138.085a10.227,10.227,0,0,1-2.72-.956,3.075,3.075,0,0,0-1.434-.51,4.231,4.231,0,0,1-1.721-.744c-.117-.064-.2-.351-.117-.446a.544.544,0,0,1,.244-.2,2.538,2.538,0,0,1,1.827.3A9.084,9.084,0,0,0,63.907,33.6c.223.393.382.68.542.977A.24.24,0,0,1,64.427,34.745Zm-.053-7.33a.744.744,0,0,0-.106-.085c.043-.021.085-.053.127-.042s.074.042.106.074C64.459,27.383,64.417,27.393,64.374,27.415Zm1.657,5.29c.043.021.064.085.085.127-.1.032-.212.106-.287.074-.244-.106-.467-.255-.7-.382C65.479,32.333,65.745,32.588,66.031,32.705Zm4.749,3.41c-.17.011-.34,0-.4,0a2.642,2.642,0,0,1-1.891-.382,10.978,10.978,0,0,0-1.392-.637c-.159-.074-.372-.106-.446-.223a3.413,3.413,0,0,0-1.572-.956c-.021,0-.011-.106.011-.159s.074-.106.106-.106a6.793,6.793,0,0,1,2.656.457,8.222,8.222,0,0,0,2.284.637.862.862,0,0,1,.8.765c.011.053.064.1.085.149C71.131,35.913,71.035,36.1,70.78,36.115Zm2.613.977a3.849,3.849,0,0,1-.457.042,1.234,1.234,0,0,1-.372-.042.375.375,0,0,1-.191-.234.369.369,0,0,1,.117-.287.415.415,0,0,1,.287-.127,3.185,3.185,0,0,1,.637.2.424.424,0,0,1,.191.255C73.606,36.954,73.478,37.071,73.393,37.093ZM74.063,95.3c-.021-.021-.021-.085-.032-.127.042-.117.117-.159.2-.106.032.021.042.1.042.138C74.254,95.33,74.169,95.373,74.063,95.3Zm2.125-61.85a3.117,3.117,0,0,1,.531-.393.544.544,0,0,1,.669.34.165.165,0,0,1-.117.255c-.319.042-.648.053-.977.064-.032,0-.085-.064-.106-.106S76.156,33.47,76.187,33.449Zm1.509,60.4a9.626,9.626,0,0,1-1.041.8,1.426,1.426,0,0,1-.457.106.888.888,0,0,1-.17-.074c-.032-.021-.032-.064-.053-.1.457-.191.552-.659.839-.977a1.24,1.24,0,0,1,.574-.3.284.284,0,0,1,.276.1C77.717,93.546,77.77,93.779,77.7,93.854Zm5.386-10.485c-.212.17-.457.266-.574.563A1.617,1.617,0,0,1,81,85.089c-.308.011-.489.266-.744.372a.411.411,0,0,1-.457-.085.521.521,0,0,1-.181-.595,2.283,2.283,0,0,1,.754-.892,10.4,10.4,0,0,1,2.6-1.169.214.214,0,0,1,.149.053.99.99,0,0,1,.106.181C83.188,83.071,83.188,83.283,83.082,83.368Zm3.9-24.466c.042.011.064.1.085.138a1.507,1.507,0,0,1-.106.308c-.011.021-.117.021-.159,0a.206.206,0,0,1-.1-.3A.208.208,0,0,1,86.981,58.9Zm-.329-12.111c.011-.011.021-.021.032-.011a.377.377,0,0,1,.042-.1l.074-.021-.032.074c-.032.011-.064.011-.085.042a.98.98,0,0,0-.053.085C86.63,46.845,86.63,46.8,86.651,46.792Zm.266,19.961a.7.7,0,0,1,.467.648,1.466,1.466,0,0,1-.138.637.857.857,0,0,1-.351.351c-.1.064-.382-.255-.425-.467A.98.98,0,0,1,86.917,66.753Zm.829,12.61-.032.032a.84.84,0,0,1-.234.627v.106H87.4a1,1,0,0,1-.616.5c-.011.021-.011.053-.021.074a.533.533,0,0,0-.074.085l-.032.159-.1-.032a1.442,1.442,0,0,1,.127-.127.534.534,0,0,0,.021-.127c.032-.011.053-.011.074-.032.138-.446.17-.478.616-.5a.106.106,0,0,0,.043-.053.187.187,0,0,0,.042-.053.734.734,0,0,1,.234-.627.158.158,0,0,1-.011-.074l.117-.011Zm.2-31.382c-.021-.032-.053-.074-.043-.117s.043-.064.064-.1a.366.366,0,0,1,.053.117C88.011,47.928,87.969,47.95,87.948,47.982Zm.7-.011c-.106.021-.159-.042-.127-.159,0-.032.074-.064.106-.053s.053.064.085.1C88.691,47.9,88.681,47.96,88.649,47.971Zm1.115,19.377a.458.458,0,0,1-.722-.1,1.493,1.493,0,0,1-.159-.478,5.818,5.818,0,0,1,.011-1.36,3.655,3.655,0,0,0-.032-1.519,1,1,0,0,1,.074-.361,4.122,4.122,0,0,0,.478.149c.181.042.34.138.351.319.085.967.17,1.933.223,2.9A.887.887,0,0,1,89.764,67.348Zm.329-5.864c-.042.011-.1.042-.117.021-.106-.085-.1-.181.021-.234.021-.021.106.032.117.064S90.1,61.431,90.093,61.484Z" transform="translate(-11.65 -24.27)" fill="#df4747"/>
  <path id="Path_117" data-name="Path 117" d="M58.045,25.694c.6.147,1.2.29,1.8.441a.218.218,0,0,1,.122.1c.048.091-.011.168-.151.206a11.084,11.084,0,0,1-3.18.254,2.5,2.5,0,0,1-1.732-.545,1.916,1.916,0,0,0-1.726-.45l.034.032a5.75,5.75,0,0,0,.938-.337,3.037,3.037,0,0,1,2.26-.2c.485.108.973.2,1.454.325.089.022.153.142.228.218-.106.066-.31-.01-.3.21,0,.006.12.03.131.013A2.485,2.485,0,0,0,58.045,25.694Zm-2.68-.222-.14.08c.023.039.051.115.07.113a2.651,2.651,0,0,0,.311-.064c-.025-.038-.041-.093-.076-.109A.519.519,0,0,0,55.364,25.472Z" transform="translate(-9.061 -24.219)" fill="#df4747"/>
  <path id="Path_118" data-name="Path 118" d="M71.673,91.99l.184-.219.064.093-.288.079Z" transform="translate(-7.91 -20.061)" fill="#df4747"/>
  <path id="Path_119" data-name="Path 119" d="M18.414,57.67c-.011.021-.011.042-.021.053a.475.475,0,0,1-.393.351.081.081,0,0,1,.021-.042c.064-.17.149-.319.351-.351C18.382,57.67,18.393,57.67,18.414,57.67Z" transform="translate(-11.254 -22.187)" fill="#df4747"/>
  <path id="Path_120" data-name="Path 120" d="M29.4,33.173H28.99c0-.011.011-.011.011-.021.149-.266.17-.266.372-.021C29.372,33.141,29.394,33.152,29.4,33.173Z" transform="translate(-10.569 -23.728)" fill="#df4747"/>
  <path id="Path_121" data-name="Path 121" d="M29.062,33.1v.064a2.883,2.883,0,0,1-.011.308V33.5H28.68c.011-.011.011-.011.011-.021l.319-.319c0-.011.011-.011.011-.021Z" transform="translate(-10.588 -23.719)" fill="#df4747"/>
</svg>
