<?xml version="1.0" encoding="utf-8"?>
<!-- Generator: Adobe Illustrator 23.0.1, SVG Export Plug-In . SVG Version: 6.00 Build 0)  -->
<svg version="1.1" id="Layer_1" xmlns="http://www.w3.org/2000/svg" xmlns:xlink="http://www.w3.org/1999/xlink" x="0px" y="0px"
	 viewBox="0 0 142 198" style="enable-background:new 0 0 142 198;" xml:space="preserve">
<style type="text/css">
	.st0{fill:none;stroke:#D2E2BE;stroke-miterlimit:10;}
	.st1{fill:#D2E2BE;}
</style>
<path class="st0" d="M73.5,58.5l3.1,43.1"/>
<path class="st0" d="M88.5,101.5c0,0-0.4,26.1-4,28.7"/>
<path class="st0" d="M93.7,112.5l-6.1,5"/>
<path class="st0" d="M116.8,127.7c0,0-19.4,38.1-18.4,44.7"/>
<path class="st0" d="M122.9,149.1c0,0-11.9,0.5-18.9,5.6"/>
<path class="st0" d="M21.3,132.8c0,0,49.3,7.2,57,11.7"/>
<path class="st0" d="M56.9,118.4c-0.1-0.1-0.1-0.2-0.2-0.2 M94.6,161.6c0,0-26.5-27.6-37.7-43.2c0,0-8.4-9.9-16.4-11.9"/>
<path class="st0" d="M49.6,85.6c6.7,9.3,16,42.8,16,42.8l0.1,1.2"/>
<path class="st1" d="M40.8,140.2l8.5-2.2l1.7-0.2"/>
<path class="st0" d="M61.8,70.7c0,0-15-33.4-16.8-33.7"/>
<path class="st0" d="M51.7,48.8c0,0,1.1-7.9-0.1-9.6"/>
<path class="st1" d="M76.7,34.8l5.1-7.9"/>
<path class="st1" d="M76.1,36.3"/>
<path class="st0" d="M88.5,102.4l3.8-30.3"/>
<path class="st1" d="M90.6,86c0,0,10.1-22.4,9.5-28.3"/>
<path class="st0" d="M93.7,112.5c0,0,29-22.1,29.2-23.1"/>
<path class="st1" d="M103.7,104.2l4.9-9.5"/>
<path class="st1" d="M61.9,71.4c0,0-32.2-25.9-33.7-59.8C28.2,11.5,63.1,19.3,61.9,71.4z"/>
<path class="st1" d="M62.3,118.1c0,0-26.7-23.9-26.6-53.4C35.8,64.7,65.7,73,62.3,118.1z"/>
<path class="st1" d="M73.7,62.1c0,0-12-35.7,5.1-62.1C78.8,0,102.9,23.4,73.7,62.1z"/>
<path class="st1" d="M89.2,99.8c0,0-10.6-36.1,7.5-61.9C96.7,37.9,119.8,62.2,89.2,99.8z"/>
<path class="st1" d="M93.5,112.2c0,0,14-30.8,41.3-37.5C134.8,74.7,136.2,104.8,93.5,112.2z"/>
<path class="st1" d="M106.6,148.4c0,0,1.2-21.7,16-32.2C122.6,116.2,130.5,133.9,106.6,148.4z"/>
<path class="st1" d="M108.6,152.1c0,0,15-15.7,33-14C141.6,138.1,136.1,156.7,108.6,152.1z"/>
<path class="st1" d="M12.4,130.6c0,0,33.8-7.5,56.2,10.9C68.6,141.5,44.8,161.3,12.4,130.6z"/>
<path class="st1" d="M1,86c0,0,34.5,2.8,50.5,27C51.5,113,23,124.9,1,86z"/>
<path class="st1" d="M40.2,104.4c0,0-17.9-1-30.1-10.5"/>
<path class="st0" d="M35.6,23.7c0,0,5.6,16.1,12.5,25.6"/>
<path class="st1" d="M81.2,41c0,0,4.6-6,3.5-16.3"/>
<path class="st1" d="M94.1,51.5c0,0-3.1,6-1.7,16.4"/>
<path class="st1" d="M116,100.5c0,0,12.1-7.9,13.5-17.3"/>
<path class="st1" d="M114.7,137.7c0,0,6.2-8,6.1-16"/>
<path class="st1" d="M119.9,145.9c0,0,7.6-3.5,14.1-2.5"/>
<path class="st1" d="M59.6,139.4c0,0-9.7,6.8-16.2,5.8"/>
<path class="st1" d="M26.8,106.8c0,0,11.5,2.9,19.5,0.8"/>
<path class="st1" d="M22.6,101c0,0-5.6,0.4-8.6-1.7"/>
<path class="st1" d="M55.9,98.7c0,0-11.1-10.4-14.7-20.3"/>
<path class="st1" d="M53.1,92c0,0,1-6.4-3.9-13.1"/>
<path class="st0" d="M108.6,199.1c0,0-21-52-32.2-96.7L61.8,70.7"/>
</svg>
