<?xml version="1.0" encoding="utf-8"?>
<!-- Generator: Adobe Illustrator 23.0.1, SVG Export Plug-In . SVG Version: 6.00 Build 0)  -->
<svg version="1.1" id="Layer_1" xmlns="http://www.w3.org/2000/svg" xmlns:xlink="http://www.w3.org/1999/xlink" x="0px" y="0px"
	 viewBox="0 0 161 198" style="enable-background:new 0 0 161 198;" xml:space="preserve">
<style type="text/css">
	.st0{fill:#D2E2BE;}
</style>
<path class="st0" d="M28.4,103.2c0.4-0.2,0.7-0.4,1-0.6c0.1,0.1,0.2,0.3,0.3,0.4c0.3,0.4,1,0.1,0.9-0.4c0-0.2-0.1-0.4-0.1-0.7
	c8.6-5.4,15-16.6,15.6-27.1c0-0.1,0.1-0.1,0.1-0.2C47,78.1,47.6,81.6,48,85c0,0,0,0,0,0c0,0-0.1,0.1-0.1,0.2c0,0.4-0.1,0.8-0.1,1.1
	c-1,7.7-5.6,15.4-6.9,23c-1.1,6.1,0.7,14.5,7.8,15.9c0,0,0.1,0,0.1,0c0,0.1,0,0.1,0,0.2c0,0.5,0.7,0.6,0.8,0.1
	c7-33.7-4.1-71.4-24.1-99.2c3.5,3.3,7,6.7,10.4,10.1c8.2,8.3,16,16.9,23.6,25.7c5,7.4,8.3,15.3,10.7,23.5
	c-0.7,15.7-7.9,33.4-2.9,48.7c2.3,7.1,8,24.1,17.8,23.6c0.2,0.5,0.3,1,0.6,1.5c0.4,0.8,1.6,0.3,1.3-0.6c-0.1-0.3-0.2-0.6-0.3-0.9
	c0.1-0.2,0.2-0.4,0-0.6c-0.1-0.1-0.1-0.2-0.2-0.2c-1.5-6,1.5-13.1,1.6-19.1c0.2-6.3-0.3-12.6-1.2-18.9c-1.7-12.1-7.1-22.8-14.4-32.4
	c-1.7-5.9-3.8-11.8-6.7-17.2c1.7,2.1,3.4,4.2,5.1,6.4c10.8,13.9,20.4,29.1,28,45c0.7,1.5,1.3,2.9,2,4.4c2.3,12.5,1.1,25.2,4,37.6
	c3.3,14,16.2,24.5,25.4,34.7c0.4,0.4,1.3,0.5,1.5-0.2c6.9-27.6-10.9-51.2-28.3-70.8c-0.8-2.2-1.7-4.3-2.7-6.4
	c-2.8-6.4-6.1-12.5-9.8-18.6c0,0,0.1,0.1,0.1,0.1c0.7,0.7,1.5,1.4,2.3,2.1c0,0.1-0.1,0.3,0,0.4c13,21.6,41.1,37.5,65.6,27.3
	c0,0,0,0,0,0c0.3,0.2,0.6,0,0.7-0.3c0.2-0.1,0.4-0.2,0.6-0.3c0.4-0.2,0.7-0.7,0.5-1.2c-5.1-10.1-16.3-15.9-26-20.7
	c-6.2-3.1-12.5-5.1-19.3-6c-2.5-0.3-4.2-0.2-6.5,0.6c-7,2.3-10.7,0.8-16.1-2.2c-1.2-1-2.5-2-3.6-3c-3.4-5.5-7.1-10.8-10.9-16
	c4.6,4.3,10.3,8.1,15.7,8.2c0.6,1.2,1.8,2.2,3.2,2.7c2,0.8,4.9,0.7,6.4-0.9c2.2-2.2,0.9-6.1-1.6-7.6c-0.4-0.2-1,0-0.9,0.5
	c0.1,0.6,0.5,1.3,0.7,2.1c0,0-0.1-0.1-0.1-0.1c-0.3-0.5-0.6-1-0.9-1.4c-0.8-1.3-2.4-2.1-3.9-2.1c-2,0.1-3,2.2-3.3,3.9
	c-0.1,0.3-0.1,0.6-0.1,0.9c-6.4-1.9-12.8-5.4-17.9-10c-0.1-0.1-0.2-0.3-0.3-0.4c-5.9-8-12.3-15.7-18.9-23.1
	c4.3,2.5,8.9,4.5,13.6,6.2c9.7,5.8,18.5,12.9,29.9,15.7c8.4,2,25.5,7.7,33.1,1c0.3-0.2,0.3-0.6,0.1-0.9c4.7-9.1-11.8-16.2-17.8-19
	c-5.2-2.4-10.7-4.4-16.2-5.6c-12.3-2.7-25.2,3.5-37.7,3c0,0,0,0,0,0c-2.6-1.1-5.2-2.3-7.9-3.6c-5.2-5.7-10.6-11.3-15.9-16.9
	c-1.1-1.1-2.2-2.2-3.3-3.4c3.1,1.1,6.2,1.8,9.4,2.2c0,0.1,0,0.2,0.1,0.3c19.6,14.6,51.8,2.2,62.9-17.3c0.2-0.4,0.2-0.7-0.1-1
	c-0.2-0.1-0.3-0.3-0.5-0.4c0,0,0,0,0,0c-0.3-0.3-0.6-0.5-0.9-0.8c-0.2-0.1-0.4-0.1-0.5,0.1c-5-4.8-13.2-2.2-19.3-0.4
	c-7.2,2.1-14.6,3-21.9,5c-8.5,2.3-13.6,9.2-21.7,11.9c-0.3,0.1-0.4,0.3-0.4,0.6c-3.1-0.5-6.1-1.2-8.9-2.1C22.4,19.6,12.1,9,0.8,0.2
	C0.5-0.1-0.1,0.4,0.3,0.8c6.1,7.3,13,13.9,20,20.5c0,0,0,0.1,0.1,0.1c0,0.1,0,0.2,0.1,0.3c4.4,5.8,7.1,12.7,9,19.7
	c1.3,5.1,1.1,10.6,1.8,15.6c-1.7-0.1-3.3,0.4-3.8,1.8c-0.5,0.3-1,0.7-1.4,1.2c-2,2.8-1.3,6.1,1.7,7.7c0.1,0.1,0.2,0.1,0.4,0.2
	c0,0-0.1,0-0.1,0c-0.4,0-0.5,0.6-0.2,0.9c2.5,1.9,6,0.8,8-1.4c0.3-0.2,0.5-0.5,0.7-0.8c0.1-0.2,0.3-0.4,0.4-0.6
	c0.1-0.2,0-0.3-0.1-0.5c0-0.4,0-0.9-0.1-1.3c0-0.2-0.1-0.3-0.2-0.5c1.2-2,0.7-4.2-1.4-5.7c-0.5-0.4-1.4-0.7-2.3-0.9
	C33,49,31.5,40.6,28.2,33c6.6,10.5,12.1,21.6,15.9,33.7c0.1,0.4,0.3,0.9,0.4,1.4c0.5,2.4,0.5,4.8,0.3,7.1c-2.4,2.6-7.1,2.5-9.9,4.6
	c-2.4,1.7-3.9,3.8-5.3,6.4c-2.2,4.2-3.4,11-1,15.5c-0.3,0.3-0.6,0.6-0.9,1C27.6,102.8,28,103.4,28.4,103.2z M49.2,110.5
	c-0.3-1.4-0.5-2.8-0.7-4.2c-0.2-2.5,0-5.2,0.6-7.7C49.2,102.5,49.2,106.5,49.2,110.5z M48.9,96.3c-2.2,6-2.7,13.1,0.2,19
	c-0.1,3-0.1,6.1-0.2,9.2c-2.9-2.9-5.6-4.6-6.4-9c-0.8-4.4,0.8-9.4,2-13.6c0.4-1.4,0.9-2.8,1.4-4.2c-1.7,8.2-3,16.9,2.3,22.8
	c0.3,0.4,0.9,0,0.7-0.4c-2.4-6.4-3.2-11.5-2.2-18.4c0.6-4,1.5-7.9,1.9-12C48.7,91.9,48.8,94.1,48.9,96.3z M72.6,95
	c1.3,5.8,2.3,11.8,3.1,17.9c1.3,9.3,2.4,18.6,3,28c0.1,2.4,0.4,4.6,0.9,6.8C70.9,131.4,73.7,113.6,72.6,95z M75.1,98.6
	c4.2,15.8,4.9,31.4,6.5,47.5c-1.2-5.3-1.6-10.8-2.1-16.6c-0.9-9.7-2.5-19.3-3.9-28.9C75.4,100,75.3,99.3,75.1,98.6z M82.4,154.3
	c0.1,0.7,0.1,1.3,0.2,2c-11-4.2-15.4-27.2-15-36.1c0.3-8.1,3.1-16.2,4-24.2C72.6,116.7,68.5,137.3,82.4,154.3z M86.5,130.5
	c0.4,6.4,0.1,12.3-1.4,18.5c-0.5,2-0.7,3.7-0.7,5.4c-0.3-0.6-0.6-1.3-0.8-1.9c0-20.9-2.2-43-10.2-62.3c0,0,0,0-0.1,0
	c-0.1-0.4-0.2-0.9-0.3-1.3C81.5,101.5,85.6,115,86.5,130.5z M129.5,192.8c-3.4-0.3-10.2-9.4-11.6-10.9c-6.7-7.5-11.1-15.8-12.7-25.7
	c-1.3-8-0.5-16.1-1.6-24c0.1,0.2,0.1,0.3,0.2,0.5c2.2,22.5,10.9,42.7,25.6,60C129.5,192.7,129.5,192.8,129.5,192.8z M106.9,140.8
	c3,8.2,5.8,16.5,9.3,24.6c2.4,6.9,5.7,13.7,9.3,20.3c-4.8-7.1-9.4-14.4-12.9-22.3C109.5,156.2,108.3,148.5,106.9,140.8z
	 M130.6,192.5c-4.3-10.2-9.7-20-14.4-30c-2.7-7-5.1-14.1-7.5-21.2c2.9,5.2,5.8,10.4,8.6,15.6C123.3,168.2,127.1,180.2,130.6,192.5
	C130.6,192.5,130.6,192.5,130.6,192.5z M131.4,190.4c0,0.3-0.1,0.6-0.2,0.9c-5.2-20.1-13.5-40.3-24.3-58.3
	C119.7,150.5,133.9,167.1,131.4,190.4z M127,120.4c-5.8-1.9-11.7-4.5-17.4-7.7c15.3,5.4,31.7,7.9,45.8,16.4
	C146.9,128.9,134.8,122.9,127,120.4z M152.4,130.3c-8.4-0.8-16-1.4-24.5-4.2c-8.7-2.9-16.1-8.2-22.9-14.2c7.1,4.1,14.7,7.4,21.5,10
	c6.2,2.4,12.7,3.6,18.9,6.1C147.6,128.9,150,129.9,152.4,130.3z M100.6,106.8c3.4,1,11.8-2.2,14.6-2.1c12.8,0.6,26.6,9.2,36.4,16.7
	c-0.2-0.2,6.6,5.1,6.2,7.8c-7.5-6.2-16.9-8.8-26.1-11.9c-10.1-3.4-20.2-6.4-30.3-9.7c-0.6-0.4-1.2-0.8-1.8-1.2
	C99.9,106.6,100.2,106.7,100.6,106.8z M99.4,108.5c6,6.8,13.8,11.9,21.8,16.1c11.2,5.9,21.4,6.1,33.3,6.8c-2.9,0.9-5.8,1.4-8.8,1.7
	c-7.3,0.8-14.6-1.4-21.2-4.2c-10.8-4.6-18.6-12.8-26.4-21.1C98.5,108,98.9,108.2,99.4,108.5z M101.6,88.8c0.2,0.1,0.3,0.2,0.4,0.3
	c0.1,0.1,0.2,0.1,0.3,0.1c0,0.4,0,0.8-0.2,1.2c-0.2,0.4-0.7,0.6-1.1,0.8c0-0.2-0.1-0.3-0.3-0.4c-0.4-0.2-0.8-0.4-1.2-0.7
	c0.1-0.1,0.1-0.1,0.2-0.2c0.1-0.4,0.1-0.8,0.3-1.1c0.2-0.4,0.7-0.3,1.1-0.2c0,0,0,0,0,0C101.1,88.8,101.4,88.8,101.6,88.8z
	 M97.6,87.1c0-0.5,0.1-0.7,0.4-0.8c0.5-0.1,1,0.1,1.4,0.5c-0.1,0-0.1,0-0.2,0c-0.8,0.2-1.3,1-1.4,1.7c-0.1-0.1-0.2-0.2-0.3-0.4
	C97.5,87.8,97.5,87.5,97.6,87.1z M96.4,74.6C89.6,72.8,83.8,69,78,65.1c15.7,7,34.8,10.3,51.5,13C119.8,81.4,105.4,77.1,96.4,74.6z
	 M130.7,77.6c-9.4-2.2-18.9-4.1-28.2-6.5c-5.9-1.5-11.7-3.5-17.5-5.3c0.7,0.2,1.5,0.4,2.2,0.6c14.6,3.6,29.1,7.4,43.6,11.3
	C130.8,77.5,130.8,77.5,130.7,77.6z M132,76.9c-11.4-5.8-25-7.8-37.4-10.6c-8.4-1.9-16.2-4.2-23.9-7c5.8,0.5,11.7,0.2,17.6,0.5
	c15.2,0.8,31.2,8.4,43.5,16.9C131.8,76.8,131.9,76.8,132,76.9C132,76.9,132,76.9,132,76.9z M104.2,55.8c8,2.5,28.9,9.2,27.8,20.1
	c-9.5-7.8-21.4-12.7-33.3-15.6c-10.7-2.6-21.5-1.6-32.2-3.1C79.2,57.1,91.3,51.7,104.2,55.8z M52,28c6.4-5.3,14-7.3,22.1-8.7
	c8.6-1.5,21.3-8.3,29.5-3.7c-7.9-0.5-15.1,1.9-22.5,4.7c-9.8,3.7-20.1,5.6-30.1,8.4C51.3,28.6,51.6,28.3,52,28z M47.7,31.1
	c8.3-1.7,16.5-3.8,24.5-6.2c10.4-3,19.9-8.4,30.9-8.3c-18.6,6.5-36.7,10.9-56,14.7C47.3,31.3,47.5,31.2,47.7,31.1z M103.3,17.6
	c-13,13.1-37.5,17.4-57.5,15.1C65.1,32,85.9,25.8,103.3,17.6z M70.8,32.8C82,31,97.3,28.3,104.6,18.7c-2.9,6.7-20.3,15.1-23.9,16.5
	c-11.9,4.6-22.8,2.4-34.4-0.9C54.4,35,62.7,34,70.8,32.8z M33.8,65.5C33.7,65.5,33.7,65.5,33.8,65.5c0,0-0.1,0-0.2,0.1
	c-0.1,0-0.4,0.1-0.4,0.1c-0.4,0.1-0.8,0.2-1.2,0.2c-0.7,0-1.7-0.1-2.4-0.4c-1.6-0.5-2.4-1.4-1.8-3.1c0.1-0.1,0.1-0.3,0.2-0.4
	c0.7,0.5,1.5,0.7,2.4,1c1.3,0.5,2.5,1.2,3.4,2.2C33.8,65.4,33.8,65.4,33.8,65.5C33.8,65.4,33.8,65.5,33.8,65.5z M35.5,62.4
	c-0.5-0.6-1-0.9-1.6-1.2c-0.3-0.6-0.8-1.2-1.3-1.7c0-0.1,0-0.1,0-0.2c0.3,0.1,0.6,0.1,0.9,0.2C34.9,60,35.5,61.1,35.5,62.4z
	 M43.6,80.9c-3.8,3.3-6.5,8.1-7.6,12.9c0,0.1,0,0.1,0,0.2c-1.4,1.5-2.9,3-4.4,4.5c2.9-8,5.7-15.5,12.7-20.9
	C44.3,78.7,44,79.8,43.6,80.9z M37.2,80.3c1.7-0.9,3.5-1.4,5-2.1c-6.1,4.9-12,13-11.4,20.9c0,0.1,0.1,0.2,0.1,0.2
	c-0.2,0.2-0.5,0.5-0.7,0.7C29.2,92.6,29.5,84.4,37.2,80.3z"/>
</svg>
