<?xml version="1.0" encoding="utf-8"?>
<!-- Generator: Adobe Illustrator 23.0.1, SVG Export Plug-In . SVG Version: 6.00 Build 0)  -->
<svg version="1.1" id="Layer_1" xmlns="http://www.w3.org/2000/svg" xmlns:xlink="http://www.w3.org/1999/xlink" x="0px" y="0px"
	 viewBox="0 0 623 610" style="enable-background:new 0 0 623 610;" xml:space="preserve">
<style type="text/css">
	.st0{fill:#D3E3BF;}
	.st1{fill:#FAFFED;}
</style>
<path class="st0" d="M587.2,340.4c-3.5-9.7-7-19.3-9.9-29.2c-9.9-34.2-19.9-75.4-13.7-111.4c6.2-35.9-1.2-75.6-19.5-106.6
	c-22.4-37.8-68.6-53.7-110-62.8c-44.3-9.7-90-3-124.9,28.6C243.9,118,194.9,187.5,106,170C33.6,155.6-7.6,243.1,3.8,304.2
	C16.8,373.4,69.9,466.9,130,498c95.9,49.6,283.6,105.5,398.9,39.2c61.9-35.6,82-101.5,67.5-166.7
	C594.1,360.2,590.7,350.3,587.2,340.4z"/>
<path class="st1" d="M464,80.9c-11-1.5-21.9-2.8-32.8-4.9c-37.6-7.3-81.9-17.9-113.2-41C286.8,11.9,245.2-0.4,206.4,1.6
	c-47.2,2.5-85.4,37.7-114.7,71.7C60.5,109.8,44.2,155.4,57,203c24,89,66,168,5,242s38,144,66,156s144,22,239-43s262-189,256-328
	c-3.2-74.6-56.2-125.1-125.7-143.1C486.4,84.1,475.2,82.4,464,80.9z"/>
</svg>
