<?xml version="1.0" encoding="utf-8"?>
<!-- Generator: Adobe Illustrator 23.0.1, SVG Export Plug-In . SVG Version: 6.00 Build 0)  -->
<svg version="1.1" id="Layer_1" xmlns="http://www.w3.org/2000/svg" xmlns:xlink="http://www.w3.org/1999/xlink" x="0px" y="0px"
	 viewBox="0 0 198 161" style="enable-background:new 0 0 198 161;" xml:space="preserve">
<style type="text/css">
	.st0{fill:#D2E2BE;}
</style>
<path class="st0" d="M102.7,27.7c-0.4,0.3-0.7,0.6-1,0.9c-4.5-2.4-11.3-1.2-15.5,1c-2.6,1.4-4.7,2.9-6.4,5.3c-2.1,2.8-2,7.5-4.6,9.9
	c-2.3,0.2-4.7,0.2-7.1-0.3c-0.5-0.1-1-0.3-1.4-0.4C54.6,40.3,43.5,34.8,33,28.2c7.6,3.3,16,4.8,24.1,4.7c0.2,0.9,0.5,1.8,0.9,2.3
	c1.5,2.1,3.7,2.6,5.7,1.4c0.2,0.1,0.3,0.2,0.5,0.2c0.4,0.1,0.9,0.1,1.3,0.1c0.2,0.1,0.3,0.2,0.5,0.1c0.2-0.1,0.4-0.3,0.6-0.4
	c0.3-0.2,0.6-0.4,0.8-0.7c2.2-2,3.3-5.5,1.4-8c-0.3-0.3-0.9-0.2-0.9,0.2v0.1c-0.1-0.2-0.1-0.3-0.2-0.4c-1.6-3-4.9-3.7-7.7-1.7
	c-0.5,0.4-0.9,0.9-1.2,1.4c-1.4,0.5-1.9,2.1-1.8,3.8c-5-0.7-10.5-0.5-15.6-1.8c-7-1.9-13.9-4.6-19.7-9c-0.1-0.1-0.2-0.1-0.3-0.1
	c0-0.1-0.1-0.1-0.1-0.1c-6.6-7-13.2-13.9-20.5-20C0.4-0.1-0.1,0.5,0.2,0.8C9,12.1,19.6,22.4,29.7,32.6c0.9,2.8,1.6,5.8,2.1,8.9
	c-0.3,0-0.5,0.1-0.6,0.4c-2.7,8.1-9.6,13.2-11.9,21.7c-2,7.3-2.9,14.7-5,21.9c-1.8,6.1-4.4,14.3,0.4,19.3c-0.2,0.1-0.2,0.3-0.1,0.5
	c0.3,0.3,0.5,0.6,0.8,0.9l0,0c0.1,0.2,0.3,0.3,0.4,0.5c0.3,0.3,0.6,0.3,1,0.1c19.5-11.1,31.9-43.3,17.3-62.9
	c-0.1-0.1-0.2-0.1-0.3-0.1c-0.4-3.2-1.1-6.3-2.2-9.4c1.2,1.1,2.3,2.2,3.4,3.3c5.6,5.3,11.2,10.7,16.9,15.9c1.3,2.7,2.5,5.3,3.6,7.9
	l0,0c0.5,12.5-5.7,25.4-3,37.7c1.2,5.5,3.2,11,5.6,16.2c2.8,6,9.9,22.5,19,17.8c0.3,0.2,0.7,0.2,0.9-0.1c6.7-7.6,1-24.7-1-33.1
	c-2.8-11.4-9.9-20.2-15.7-29.9c-1.7-4.7-3.7-9.3-6.2-13.6c7.4,6.6,15.1,13,23.1,18.9c0.1,0.1,0.3,0.2,0.4,0.3
	c4.6,5.1,8.1,11.5,10,17.9c-0.3,0-0.6,0-0.9,0.1C86,94,83.9,95,83.8,97c0,1.5,0.8,3.1,2.1,3.9c0.4,0.3,0.9,0.6,1.4,0.9l0.1,0.1
	c-0.8-0.2-1.5-0.6-2.1-0.7c-0.5-0.1-0.7,0.5-0.5,0.9c1.5,2.5,5.4,3.8,7.6,1.6c1.6-1.5,1.7-4.4,0.9-6.4c-0.5-1.4-1.5-2.6-2.7-3.2
	c-0.1-5.4-3.9-11.1-8.2-15.7c5.2,3.8,10.5,7.5,16,10.9c1,1.1,2,2.4,3,3.6c3,5.4,4.5,9.1,2.2,16.1c-0.8,2.3-0.9,4-0.6,6.5
	c0.9,6.8,2.9,13.1,6,19.3c4.8,9.7,10.6,20.9,20.7,26c0.5,0.2,1-0.1,1.2-0.5c0.1-0.2,0.2-0.4,0.3-0.6c0.3-0.1,0.5-0.4,0.3-0.7l0,0
	c10.2-24.5-5.7-52.6-27.3-65.6c-0.1-0.1-0.3,0-0.4,0c-0.7-0.8-1.4-1.6-2.1-2.3l-0.1-0.1c6.1,3.7,12.2,7,18.6,9.8
	c2.1,1,4.2,1.9,6.4,2.7c19.6,17.4,43.2,35.2,70.8,28.3c0.7-0.2,0.6-1.1,0.2-1.5c-10.2-9.2-20.7-22.1-34.7-25.4
	c-12.4-2.9-25.1-1.7-37.6-4c-1.5-0.7-2.9-1.3-4.4-2c-15.9-7.6-31.1-17.2-45-28c-2.2-1.7-4.3-3.4-6.4-5.1c5.4,2.9,11.3,5,17.2,6.7
	c9.6,7.3,20.3,12.7,32.4,14.4c6.3,0.9,12.6,1.4,18.9,1.2c6-0.1,13.1-3.1,19.1-1.6c0,0.1,0.1,0.1,0.2,0.2c0.2,0.2,0.4,0.1,0.6,0
	c0.3,0.1,0.6,0.2,0.9,0.3c0.9,0.3,1.4-0.9,0.6-1.3c-0.5-0.3-1-0.4-1.5-0.6c0.5-9.8-16.5-15.5-23.6-17.8c-15.3-5-33,2.2-48.7,2.9
	c-8.2-2.4-16.1-5.7-23.5-10.7c-8.8-7.6-17.4-15.4-25.7-23.6C33,32.5,29.6,29,26.3,25.5c27.8,20,65.5,31.1,99.2,24.1
	c0.5-0.1,0.4-0.8-0.1-0.8c-0.1,0-0.1,0-0.2,0v-0.1c-1.4-7.1-9.8-8.9-15.9-7.8c-7.6,1.3-15.3,5.9-23,6.9c-0.3,0-0.7,0.1-1.1,0.1
	C85.1,47.9,85,48,85,48l0,0c-3.4-0.4-6.9-1-10.4-1.8c0.1,0,0.1-0.1,0.2-0.1c10.5-0.6,21.7-7,27.1-15.6c0.3,0,0.5,0.1,0.7,0.1
	c0.5,0.1,0.8-0.6,0.4-0.9c-0.1-0.1-0.3-0.2-0.4-0.3c0.2-0.3,0.4-0.6,0.6-1C103.4,28,102.8,27.6,102.7,27.7z M98.6,49.1
	c2.5-0.6,5.2-0.8,7.7-0.6c1.4,0.2,2.8,0.4,4.2,0.7C106.5,49.2,102.5,49.2,98.6,49.1z M89.7,48.6c4.1-0.4,8-1.3,12-1.9
	c6.9-1,12-0.2,18.4,2.2c0.4,0.2,0.8-0.4,0.4-0.7c-5.9-5.3-14.6-4-22.8-2.3c1.4-0.5,2.8-1,4.2-1.4c4.2-1.2,9.2-2.8,13.6-2
	c4.4,0.8,6.1,3.5,9,6.4c-3.1,0.1-6.2,0.1-9.2,0.2c-5.9-2.9-13-2.4-19-0.2C94.1,48.8,91.9,48.7,89.7,48.6z M147.7,79.6
	c-2.2-0.5-4.4-0.8-6.8-0.9c-9.4-0.6-18.7-1.7-28-3c-6.1-0.8-12.1-1.8-17.9-3.1C113.6,73.7,131.4,70.9,147.7,79.6z M100.6,75.6
	c9.6,1.4,19.2,3,28.9,3.9c5.8,0.5,11.3,0.9,16.6,2.1c-16.1-1.6-31.7-2.3-47.5-6.5C99.3,75.3,100,75.4,100.6,75.6z M96,71.6
	c8-0.9,16.1-3.7,24.2-4c8.9-0.4,31.9,4,36.1,15c-0.7-0.1-1.3-0.1-2-0.2C137.3,68.5,116.7,72.6,96,71.6z M88.9,73
	c0.4,0.1,0.9,0.2,1.3,0.3c0,0.1,0,0.1,0,0.1c19.3,8,41.4,10.2,62.3,10.2c0.6,0.2,1.3,0.5,1.9,0.8c-1.7,0-3.4,0.2-5.4,0.7
	c-6.2,1.5-12.1,1.8-18.5,1.4C115,85.6,101.5,81.5,88.9,73z M192.7,129.4c-17.3-14.7-37.5-23.4-60-25.6c-0.2-0.1-0.3-0.1-0.5-0.2
	c7.9,1.1,16,0.3,24,1.6c9.9,1.6,18.2,6,25.7,12.7C183.4,119.3,192.5,126.1,192.7,129.4C192.8,129.5,192.7,129.5,192.7,129.4z
	 M163.4,112.6c7.9,3.5,15.2,8.1,22.3,12.9c-6.6-3.6-13.4-6.9-20.3-9.3c-8.1-3.5-16.4-6.3-24.6-9.3
	C148.5,108.3,156.2,109.5,163.4,112.6z M192.5,130.6c-12.3-3.5-24.3-7.3-35.6-13.3c-5.2-2.8-10.4-5.7-15.6-8.6
	c7.1,2.4,14.2,4.8,21.2,7.5C172.5,120.9,182.3,126.3,192.5,130.6L192.5,130.6z M133,106.9c18,10.8,38.2,19.1,58.3,24.3
	c-0.3,0.1-0.6,0.2-0.9,0.2C167.1,133.9,150.5,119.7,133,106.9z M129.1,155.4c-8.5-14.1-11-30.5-16.4-45.8c3.2,5.7,5.8,11.6,7.7,17.4
	C122.9,134.8,128.9,146.9,129.1,155.4z M128,145.4c-2.5-6.2-3.7-12.7-6.1-18.9c-2.6-6.8-5.9-14.4-10-21.5c6,6.8,11.3,14.2,14.2,22.9
	c2.8,8.5,3.4,16.1,4.2,24.5C129.9,150,128.9,147.6,128,145.4z M106.4,99.6c0.4,0.6,0.8,1.2,1.2,1.8c3.3,10.1,6.3,20.2,9.7,30.3
	c3.1,9.2,5.7,18.6,11.9,26.1c-2.7,0.4-8-6.4-7.8-6.2c-7.5-9.8-16.1-23.6-16.7-36.4c-0.1-2.8,3.1-11.2,2.1-14.6
	C106.7,100.2,106.6,99.9,106.4,99.6z M107.8,98.1c8.3,7.8,16.5,15.6,21.1,26.4c2.8,6.6,5,13.9,4.2,21.2c-0.3,3-0.8,5.9-1.7,8.8
	c-0.7-11.9-0.9-22.1-6.8-33.3c-4.2-8-9.3-15.8-16.1-21.8C108.2,98.9,108,98.5,107.8,98.1z M88.6,101.1L88.6,101.1
	c-0.1-0.4-0.2-0.9,0.2-1.1c0.3-0.2,0.7-0.2,1.1-0.3c0.1-0.1,0.1-0.1,0.2-0.2c0.3,0.4,0.5,0.8,0.7,1.2c0.1,0.2,0.2,0.3,0.4,0.3
	c-0.2,0.4-0.4,0.9-0.8,1.1c-0.4,0.2-0.8,0.2-1.2,0.2c0-0.1,0-0.2-0.1-0.3c-0.1-0.1-0.2-0.2-0.3-0.4
	C88.8,101.4,88.8,101.1,88.6,101.1z M88.1,97.5c0.2,0.1,0.3,0.2,0.4,0.3c-0.7,0.1-1.5,0.6-1.7,1.4c0,0.1,0,0.1,0,0.2
	c-0.4-0.4-0.6-0.9-0.5-1.4c0.1-0.3,0.3-0.4,0.8-0.4C87.5,97.5,87.8,97.5,88.1,97.5z M78.1,129.5c-2.7-16.7-6-35.8-13-51.5
	c3.9,5.8,7.7,11.6,9.5,18.4C77.1,105.4,81.4,119.8,78.1,129.5z M77.7,130.8c-3.9-14.5-7.7-29-11.3-43.6c-0.2-0.7-0.4-1.5-0.6-2.2
	c1.8,5.8,3.8,11.6,5.3,17.5C73.5,111.8,75.4,121.3,77.7,130.8C77.5,130.8,77.5,130.8,77.7,130.8z M76.9,132
	c-0.1-0.1-0.1-0.2-0.2-0.2c-8.5-12.3-16.1-28.3-16.9-43.5c-0.3-5.9,0-11.8-0.5-17.6c2.8,7.7,5.1,15.5,7,23.9
	C69.1,107,71.1,120.6,76.9,132L76.9,132z M57.2,66.5c1.5,10.7,0.5,21.5,3.1,32.2c2.9,11.9,7.8,23.8,15.6,33.3
	c-10.9,1.1-17.6-19.8-20.1-27.8C51.7,91.3,57.1,79.2,57.2,66.5z M28.7,51c-2.8,10-4.7,20.3-8.4,30.1c-2.8,7.4-5.2,14.6-4.7,22.5
	c-4.6-8.2,2.2-20.9,3.7-29.5C20.7,66,22.7,58.4,28,52C28.3,51.6,28.6,51.3,28.7,51z M31.3,47.1c-3.8,19.3-8.2,37.4-14.7,56
	c-0.1-11,5.3-20.5,8.3-30.9c2.4-8,4.5-16.2,6.2-24.5C31.2,47.5,31.3,47.3,31.3,47.1z M32.7,45.8c2.3,20-2,44.5-15.1,57.5
	C25.8,85.9,32,65.1,32.7,45.8z M34.3,46.3c3.3,11.6,5.5,22.5,0.9,34.4c-1.4,3.6-9.8,21-16.5,23.9C28.3,97.3,31,82,32.8,70.8
	C34,62.7,35,54.4,34.3,46.3z M65.5,33.8c-0.1,0-0.1,0-0.3,0c-1-0.9-1.7-2.1-2.2-3.4c-0.3-0.9-0.5-1.7-1-2.4c0.1-0.1,0.3-0.1,0.4-0.2
	c1.7-0.6,2.6,0.2,3.1,1.8c0.3,0.7,0.4,1.7,0.4,2.4c0,0.4-0.1,0.8-0.2,1.2c0,0-0.1,0.3-0.1,0.4C65.5,33.7,65.5,33.8,65.5,33.8
	C65.5,33.7,65.5,33.7,65.5,33.8C65.5,33.8,65.4,33.8,65.5,33.8z M59.5,33.5c-0.1-0.3-0.1-0.6-0.2-0.9c0.1,0,0.1,0,0.2,0
	c0.5,0.5,1.1,1,1.7,1.3c0.3,0.6,0.6,1.1,1.2,1.6C61.1,35.5,60,34.9,59.5,33.5z M77.6,44.3c5.4-7,12.9-9.8,20.9-12.7
	c-1.5,1.5-3,3-4.5,4.4c-0.1,0-0.1,0-0.2,0c-4.8,1.1-9.6,3.8-12.9,7.6C79.8,44,78.7,44.3,77.6,44.3z M100,30.2
	c-0.2,0.2-0.5,0.5-0.7,0.7c0,0-0.1-0.1-0.2-0.1c-7.9-0.6-16,5.3-20.9,11.4c0.7-1.5,1.2-3.3,2.1-5C84.4,29.5,92.6,29.2,100,30.2z"/>
</svg>
