<?xml version="1.0" encoding="utf-8"?>
<!-- Generator: Adobe Illustrator 23.0.1, SVG Export Plug-In . SVG Version: 6.00 Build 0)  -->
<svg version="1.1" id="Layer_1" xmlns="http://www.w3.org/2000/svg" xmlns:xlink="http://www.w3.org/1999/xlink" x="0px" y="0px"
	 viewBox="0 0 198 142" style="enable-background:new 0 0 198 142;" xml:space="preserve">
<style type="text/css">
	.st0{fill:none;stroke:#D2E2BE;stroke-miterlimit:10;}
	.st1{fill:#D2E2BE;}
</style>
<g>
	<path class="st0" d="M97.3,66.3l43.1,3.1"/>
	<path class="st0" d="M68.7,58.4c2.6-3.6,28.7-4,28.7-4"/>
	<path class="st0" d="M81.4,55.3l5-6.1"/>
	<path class="st0" d="M26.5,44.5c6.6,1,44.7-18.4,44.7-18.4"/>
	<path class="st0" d="M44.1,38.9c5.1-7,5.6-18.9,5.6-18.9"/>
	<path class="st0" d="M54.4,64.6c4.5,7.7,11.7,57,11.7,57"/>
	<path class="st0" d="M80.7,86.2c0-0.1-0.1-0.1-0.2-0.2 M92.3,102.4c-2-8-11.9-16.4-11.9-16.4C64.9,74.8,37.3,48.3,37.3,48.3"/>
	<path class="st0" d="M69.3,77.2l1.2,0.1c0,0,33.5,9.3,42.8,16"/>
	<path class="st1" d="M61.1,91.9l-0.2,1.7l-2.2,8.5"/>
	<path class="st0" d="M161.9,97.9c-0.3-1.8-33.7-16.8-33.7-16.8"/>
	<path class="st0" d="M159.7,91.3c-1.7-1.2-9.6-0.1-9.6-0.1"/>
	<path class="st1" d="M172,61.1l-7.9,5.1"/>
	<path class="st1" d="M162.6,66.8"/>
	<path class="st0" d="M126.8,50.6l-30.3,3.8"/>
	<path class="st1" d="M141.2,42.8c-5.9-0.6-28.3,9.5-28.3,9.5"/>
	<path class="st0" d="M109.5,20c-1,0.2-23.1,29.2-23.1,29.2"/>
	<path class="st1" d="M104.2,34.3l-9.5,4.9"/>
	<path class="st1" d="M187.3,114.7c-33.9-1.5-59.8-33.7-59.8-33.7C179.6,79.8,187.4,114.7,187.3,114.7z"/>
	<path class="st1" d="M134.2,107.2c-29.5,0.1-53.4-26.6-53.4-26.6C125.9,77.2,134.2,107.1,134.2,107.2z"/>
	<path class="st1" d="M198.9,64.1c-26.4,17.1-62.1,5.1-62.1,5.1C175.5,40,198.9,64.1,198.9,64.1z"/>
	<path class="st1" d="M161,46.2c-25.8,18.1-61.9,7.5-61.9,7.5C136.7,23.1,161,46.2,161,46.2z"/>
	<path class="st1" d="M124.2,8.1c-6.7,27.3-37.5,41.3-37.5,41.3C94.1,6.7,124.2,8.1,124.2,8.1z"/>
	<path class="st1" d="M82.7,20.3c-10.5,14.8-32.2,16-32.2,16C65,12.4,82.7,20.3,82.7,20.3z"/>
	<path class="st1" d="M60.8,1.3c1.7,18-14,33-14,33C42.2,6.8,60.8,1.3,60.8,1.3z"/>
	<path class="st1" d="M57.4,74.3c18.4,22.4,10.9,56.2,10.9,56.2C37.6,98.1,57.4,74.3,57.4,74.3z"/>
	<path class="st1" d="M85.9,91.4c24.2,16,27,50.5,27,50.5C74,119.9,85.9,91.4,85.9,91.4z"/>
	<path class="st1" d="M105,132.8c-9.5-12.2-10.5-30.1-10.5-30.1"/>
	<path class="st0" d="M149.6,94.8c9.5,6.9,25.6,12.5,25.6,12.5"/>
	<path class="st1" d="M174.2,58.2c-10.3-1.1-16.3,3.5-16.3,3.5"/>
	<path class="st1" d="M131,50.5c10.4,1.4,16.4-1.7,16.4-1.7"/>
	<path class="st1" d="M115.7,13.4c-9.4,1.4-17.3,13.5-17.3,13.5"/>
	<path class="st1" d="M77.2,22.1c-8-0.1-16,6.1-16,6.1"/>
	<path class="st1" d="M55.5,8.9C56.5,15.4,53,23,53,23"/>
	<path class="st1" d="M53.7,99.5c-1-6.5,5.8-16.2,5.8-16.2"/>
	<path class="st1" d="M91.3,96.6c-2.1,8,0.8,19.5,0.8,19.5"/>
	<path class="st1" d="M99.6,128.9c-2.1-3-1.7-8.6-1.7-8.6"/>
	<path class="st1" d="M120.5,101.7c-9.9-3.6-20.3-14.7-20.3-14.7"/>
	<path class="st1" d="M120,93.7c-6.7-4.9-13.1-3.9-13.1-3.9"/>
	<path class="st0" d="M128.2,81.1L96.4,66.5C51.8,55.3-0.3,34.3-0.3,34.3"/>
</g>
</svg>
