<?xml version="1.0" encoding="utf-8"?>
<!-- Generator: Adobe Illustrator 23.0.1, SVG Export Plug-In . SVG Version: 6.00 Build 0)  -->
<svg version="1.1" id="Layer_1" xmlns="http://www.w3.org/2000/svg" xmlns:xlink="http://www.w3.org/1999/xlink" x="0px" y="0px"
	 viewBox="0 0 198 142" style="enable-background:new 0 0 198 142;" xml:space="preserve">
<style type="text/css">
	.st0{fill:none;stroke:#D2E2BE;stroke-miterlimit:10;}
	.st1{fill:#D2E2BE;}
</style>
<g>
	<path class="st0" d="M58.3,69.4l43.1-3.1"/>
	<path class="st0" d="M101.3,54.4c0,0,26.1,0.4,28.7,4"/>
	<path class="st0" d="M112.3,49.2l5,6.1"/>
	<path class="st0" d="M127.4,26.1c0,0,38.1,19.4,44.7,18.4"/>
	<path class="st0" d="M148.9,20c0,0,0.5,11.9,5.6,18.9"/>
	<path class="st0" d="M132.6,121.6c0,0,7.2-49.3,11.7-57"/>
	<path class="st0" d="M118.2,86c-0.1,0.1-0.2,0.1-0.2,0.2 M161.4,48.3c0,0-27.6,26.5-43.2,37.7c0,0-9.9,8.4-11.9,16.4"/>
	<path class="st0" d="M85.3,93.3c9.3-6.7,42.8-16,42.8-16l1.2-0.1"/>
	<path class="st1" d="M139.9,102.1l-2.2-8.5l-0.2-1.7"/>
	<path class="st0" d="M70.4,81.1c0,0-33.4,15-33.7,16.8"/>
	<path class="st0" d="M48.5,91.2c0,0-7.9-1.1-9.6,0.1"/>
	<path class="st1" d="M34.5,66.2l-7.9-5.1"/>
	<path class="st1" d="M36,66.8"/>
	<path class="st0" d="M102.2,54.4l-30.3-3.8"/>
	<path class="st1" d="M85.8,52.3c0,0-22.4-10.1-28.3-9.5"/>
	<path class="st0" d="M112.3,49.2c0,0-22.1-29-23.1-29.2"/>
	<path class="st1" d="M103.9,39.2l-9.5-4.9"/>
	<path class="st1" d="M71.2,81c0,0-25.9,32.2-59.8,33.7C11.3,114.7,19,79.8,71.2,81z"/>
	<path class="st1" d="M117.8,80.6c0,0-23.9,26.7-53.4,26.6C64.4,107.1,72.8,77.2,117.8,80.6z"/>
	<path class="st1" d="M61.8,69.2c0,0-35.7,12-62.1-5.1C-0.3,64.1,23.1,40,61.8,69.2z"/>
	<path class="st1" d="M99.6,53.7c0,0-36.1,10.6-61.9-7.5C37.7,46.2,62,23.1,99.6,53.7z"/>
	<path class="st1" d="M111.9,49.4c0,0-30.8-14-37.5-41.3C74.4,8.1,104.6,6.7,111.9,49.4z"/>
	<path class="st1" d="M148.1,36.3c0,0-21.7-1.2-32.2-16C115.9,20.3,133.6,12.4,148.1,36.3z"/>
	<path class="st1" d="M151.9,34.3c0,0-15.7-15-14-33C137.9,1.3,156.4,6.8,151.9,34.3z"/>
	<path class="st1" d="M130.4,130.5c0,0-7.5-33.8,10.9-56.2C141.3,74.3,161.1,98.1,130.4,130.5z"/>
	<path class="st1" d="M85.8,141.9c0,0,2.8-34.5,27-50.5C112.8,91.4,124.7,119.9,85.8,141.9z"/>
	<path class="st1" d="M104.2,102.7c0,0-1,17.9-10.5,30.1"/>
	<path class="st0" d="M23.5,107.3c0,0,16.1-5.6,25.6-12.5"/>
	<path class="st1" d="M40.8,61.7c0,0-6-4.6-16.3-3.5"/>
	<path class="st1" d="M51.3,48.8c0,0,6,3.1,16.4,1.7"/>
	<path class="st1" d="M100.3,26.9c0,0-7.9-12.1-17.3-13.5"/>
	<path class="st1" d="M137.4,28.2c0,0-8-6.2-16-6.1"/>
	<path class="st1" d="M145.6,23c0,0-3.5-7.6-2.5-14.1"/>
	<path class="st1" d="M139.1,83.3c0,0,6.8,9.7,5.8,16.2"/>
	<path class="st1" d="M106.6,116.1c0,0,2.9-11.5,0.8-19.5"/>
	<path class="st1" d="M100.8,120.3c0,0,0.4,5.6-1.7,8.6"/>
	<path class="st1" d="M98.4,87c0,0-10.4,11.1-20.3,14.7"/>
	<path class="st1" d="M91.8,89.8c0,0-6.4-1-13.1,3.9"/>
	<path class="st0" d="M198.9,34.3c0,0-52,21-96.7,32.2L70.4,81.1"/>
</g>
</svg>
