<?xml version="1.0" encoding="utf-8"?>
<!-- Generator: Adobe Illustrator 23.0.1, SVG Export Plug-In . SVG Version: 6.00 Build 0)  -->
<svg version="1.1" id="Layer_1" xmlns="http://www.w3.org/2000/svg" xmlns:xlink="http://www.w3.org/1999/xlink" x="0px" y="0px"
	 viewBox="0 0 198 161" style="enable-background:new 0 0 198 161;" xml:space="preserve">
<style type="text/css">
	.st0{fill:#D2E2BE;}
</style>
<path class="st0" d="M94.8,28.4c0.2,0.4,0.4,0.7,0.6,1c-0.1,0.1-0.3,0.2-0.4,0.3c-0.4,0.3-0.1,1,0.4,0.9c0.2,0,0.4-0.1,0.7-0.1
	c5.4,8.6,16.6,15,27.1,15.6c0.1,0,0.1,0.1,0.2,0.1c-3.5,0.8-7,1.4-10.4,1.8l0,0c0,0-0.1-0.1-0.2-0.1c-0.4,0-0.8-0.1-1.1-0.1
	c-7.7-1-15.4-5.6-23-6.9c-6.1-1.1-14.5,0.7-15.9,7.8v0.1c-0.1,0-0.1,0-0.2,0c-0.5,0-0.6,0.7-0.1,0.8c33.7,7,71.4-4.1,99.2-24.1
	c-3.3,3.5-6.7,7-10.1,10.4c-8.3,8.2-16.9,16-25.7,23.6c-7.4,5-15.3,8.3-23.5,10.7c-15.7-0.7-33.4-7.9-48.7-2.9
	c-7.1,2.3-24.1,8-23.6,17.8c-0.5,0.2-1,0.3-1.5,0.6c-0.8,0.4-0.3,1.6,0.6,1.3c0.3-0.1,0.6-0.2,0.9-0.3c0.2,0.1,0.4,0.2,0.6,0
	c0.1-0.1,0.2-0.1,0.2-0.2C46.9,85,54,88,60,88.1c6.3,0.2,12.6-0.3,18.9-1.2c12.1-1.7,22.8-7.1,32.4-14.4c5.9-1.7,11.8-3.8,17.2-6.7
	c-2.1,1.7-4.2,3.4-6.4,5.1c-13.9,10.8-29.1,20.4-45,28c-1.5,0.7-2.9,1.3-4.4,2c-12.5,2.3-25.2,1.1-37.6,4
	c-14,3.3-24.5,16.2-34.7,25.4c-0.4,0.4-0.5,1.3,0.2,1.5c27.6,6.9,51.2-10.9,70.8-28.3c2.2-0.8,4.3-1.7,6.4-2.7
	c6.4-2.8,12.5-6.1,18.6-9.8l-0.1,0.1c-0.7,0.7-1.4,1.5-2.1,2.3c-0.1,0-0.3-0.1-0.4,0c-21.6,13-37.5,41.1-27.3,65.6l0,0
	c-0.2,0.3,0,0.6,0.3,0.7c0.1,0.2,0.2,0.4,0.3,0.6c0.2,0.4,0.7,0.7,1.2,0.5c10.1-5.1,15.9-16.3,20.7-26c3.1-6.2,5.1-12.5,6-19.3
	c0.3-2.5,0.2-4.2-0.6-6.5c-2.3-7-0.8-10.7,2.2-16.1c1-1.2,2-2.5,3-3.6c5.5-3.4,10.8-7.1,16-10.9c-4.3,4.6-8.1,10.3-8.2,15.7
	c-1.2,0.6-2.2,1.8-2.7,3.2c-0.8,2-0.7,4.9,0.9,6.4c2.2,2.2,6.1,0.9,7.6-1.6c0.2-0.4,0-1-0.5-0.9c-0.6,0.1-1.3,0.5-2.1,0.7l0.1-0.1
	c0.5-0.3,1-0.6,1.4-0.9c1.3-0.8,2.1-2.4,2.1-3.9c-0.1-2-2.2-3-3.9-3.3c-0.3-0.1-0.6-0.1-0.9-0.1c1.9-6.4,5.4-12.8,10-17.9
	c0.1-0.1,0.3-0.2,0.4-0.3c8-5.9,15.7-12.3,23.1-18.9c-2.5,4.3-4.5,8.9-6.2,13.6c-5.8,9.7-12.9,18.5-15.7,29.9
	c-2,8.4-7.7,25.5-1,33.1c0.2,0.3,0.6,0.3,0.9,0.1c9.1,4.7,16.2-11.8,19-17.8c2.4-5.2,4.4-10.7,5.6-16.2c2.7-12.3-3.5-25.2-3-37.7
	l0,0c1.1-2.6,2.3-5.2,3.6-7.9c5.7-5.2,11.3-10.6,16.9-15.9c1.1-1.1,2.2-2.2,3.4-3.3c-1.1,3.1-1.8,6.2-2.2,9.4c-0.1,0-0.2,0-0.3,0.1
	c-14.6,19.6-2.2,51.8,17.3,62.9c0.4,0.2,0.7,0.2,1-0.1c0.1-0.2,0.3-0.3,0.4-0.5l0,0c0.3-0.3,0.5-0.6,0.8-0.9
	c0.1-0.2,0.1-0.4-0.1-0.5c4.8-5,2.2-13.2,0.4-19.3c-2.1-7.2-3-14.6-5-21.9c-2.3-8.5-9.2-13.6-11.9-21.7c-0.1-0.3-0.3-0.4-0.6-0.4
	c0.5-3.1,1.2-6.1,2.1-8.9c10.1-10.2,20.7-20.5,29.5-31.8c0.3-0.3-0.2-0.9-0.6-0.5c-7.3,6.1-13.9,13-20.5,20c0,0-0.1,0-0.1,0.1
	c-0.1,0-0.2,0-0.3,0.1c-5.8,4.4-12.7,7.1-19.7,9c-5.1,1.3-10.6,1.1-15.6,1.8c0.1-1.7-0.4-3.3-1.8-3.8c-0.3-0.5-0.7-1-1.2-1.4
	c-2.8-2-6.1-1.3-7.7,1.7c-0.1,0.1-0.1,0.2-0.2,0.4v-0.1c0-0.4-0.6-0.5-0.9-0.2c-1.9,2.5-0.8,6,1.4,8c0.2,0.3,0.5,0.5,0.8,0.7
	c0.2,0.1,0.4,0.3,0.6,0.4c0.2,0.1,0.3,0,0.5-0.1c0.4,0,0.9,0,1.3-0.1c0.2,0,0.3-0.1,0.5-0.2c2,1.2,4.2,0.7,5.7-1.4
	c0.4-0.5,0.7-1.4,0.9-2.3c8.1,0.1,16.5-1.4,24.1-4.7c-10.5,6.6-21.6,12.1-33.7,15.9c-0.4,0.1-0.9,0.3-1.4,0.4
	c-2.4,0.5-4.8,0.5-7.1,0.3c-2.6-2.4-2.5-7.1-4.6-9.9c-1.7-2.4-3.8-3.9-6.4-5.3c-4.2-2.2-11-3.4-15.5-1c-0.3-0.3-0.6-0.6-1-0.9
	C95.2,27.6,94.6,28,94.8,28.4z M87.5,49.2c1.4-0.3,2.8-0.5,4.2-0.7c2.5-0.2,5.2,0,7.7,0.6C95.5,49.2,91.5,49.2,87.5,49.2z
	 M101.7,48.9c-6-2.2-13.1-2.7-19,0.2c-3-0.1-6.1-0.1-9.2-0.2c2.9-2.9,4.6-5.6,9-6.4c4.4-0.8,9.4,0.8,13.6,2c1.4,0.4,2.8,0.9,4.2,1.4
	c-8.2-1.7-16.9-3-22.8,2.3c-0.4,0.3,0,0.9,0.4,0.7c6.4-2.4,11.5-3.2,18.4-2.2c4,0.6,7.9,1.5,12,1.9
	C106.1,48.7,103.9,48.8,101.7,48.9z M103,72.6c-5.8,1.3-11.8,2.3-17.9,3.1c-9.3,1.3-18.6,2.4-28,3c-2.4,0.1-4.6,0.4-6.8,0.9
	C66.6,70.9,84.4,73.7,103,72.6z M99.4,75.1C83.6,79.3,68,80,51.9,81.6c5.3-1.2,10.8-1.6,16.6-2.1c9.7-0.9,19.3-2.5,28.9-3.9
	C98,75.4,98.7,75.3,99.4,75.1z M43.7,82.4c-0.7,0.1-1.3,0.1-2,0.2c4.2-11,27.2-15.4,36.1-15c8.1,0.3,16.2,3.1,24.2,4
	C81.3,72.6,60.7,68.5,43.7,82.4z M67.5,86.5c-6.4,0.4-12.3,0.1-18.5-1.4c-2-0.5-3.7-0.7-5.4-0.7c0.6-0.3,1.3-0.6,1.9-0.8
	c20.9,0,43-2.2,62.3-10.2c0,0,0,0,0-0.1c0.4-0.1,0.9-0.2,1.3-0.3C96.5,81.5,83,85.6,67.5,86.5z M5.2,129.5
	c0.3-3.4,9.4-10.2,10.9-11.6c7.5-6.7,15.8-11.1,25.7-12.7c8-1.3,16.1-0.5,24-1.6c-0.2,0.1-0.3,0.1-0.5,0.2
	C42.8,106,22.6,114.7,5.2,129.5C5.3,129.5,5.2,129.5,5.2,129.5z M57.2,106.9c-8.2,3-16.5,5.8-24.6,9.3c-6.9,2.4-13.7,5.7-20.3,9.3
	c7.1-4.8,14.4-9.4,22.3-12.9C41.8,109.5,49.5,108.3,57.2,106.9z M5.5,130.6c10.2-4.3,20-9.7,30-14.4c7-2.7,14.1-5.1,21.2-7.5
	c-5.2,2.9-10.4,5.8-15.6,8.6C29.8,123.3,17.8,127.1,5.5,130.6L5.5,130.6z M7.6,131.4c-0.3,0-0.6-0.1-0.9-0.2
	C26.8,126,47,117.7,65,106.9C47.5,119.7,30.9,133.9,7.6,131.4z M77.6,127c1.9-5.8,4.5-11.7,7.7-17.4c-5.4,15.3-7.9,31.7-16.4,45.8
	C69.1,146.9,75.1,134.8,77.6,127z M67.7,152.4c0.8-8.4,1.4-16,4.2-24.5c2.9-8.7,8.2-16.1,14.2-22.9c-4.1,7.1-7.4,14.7-10,21.5
	c-2.4,6.2-3.6,12.7-6.1,18.9C69.1,147.6,68.1,150,67.7,152.4z M91.2,100.6c-1,3.4,2.2,11.8,2.1,14.6c-0.6,12.8-9.2,26.6-16.7,36.4
	c0.2-0.2-5.1,6.6-7.8,6.2c6.2-7.5,8.8-16.9,11.9-26.1c3.4-10.1,6.4-20.2,9.7-30.3c0.4-0.6,0.8-1.2,1.2-1.8
	C91.4,99.9,91.3,100.2,91.2,100.6z M89.5,99.4c-6.8,6-11.9,13.8-16.1,21.8c-5.9,11.2-6.1,21.4-6.8,33.3c-0.9-2.9-1.4-5.8-1.7-8.8
	c-0.8-7.3,1.4-14.6,4.2-21.2c4.6-10.8,12.8-18.6,21.1-26.4C90,98.5,89.8,98.9,89.5,99.4z M109.2,101.6c-0.1,0.2-0.2,0.3-0.3,0.4
	c-0.1,0.1-0.1,0.2-0.1,0.3c-0.4,0-0.8,0-1.2-0.2c-0.4-0.2-0.6-0.7-0.8-1.1c0.2,0,0.3-0.1,0.4-0.3c0.2-0.4,0.4-0.8,0.7-1.2
	c0.1,0.1,0.1,0.1,0.2,0.2c0.4,0.1,0.8,0.1,1.1,0.3c0.4,0.2,0.3,0.7,0.2,1.1l0,0C109.2,101.1,109.2,101.4,109.2,101.6z M110.9,97.6
	c0.5,0,0.7,0.1,0.8,0.4c0.1,0.5-0.1,1-0.5,1.4c0-0.1,0-0.1,0-0.2c-0.2-0.8-1-1.3-1.7-1.4c0.1-0.1,0.2-0.2,0.4-0.3
	C110.2,97.5,110.5,97.5,110.9,97.6z M123.4,96.4c1.8-6.8,5.6-12.6,9.5-18.4c-7,15.7-10.3,34.8-13,51.5
	C116.6,119.8,120.9,105.4,123.4,96.4z M120.4,130.7c2.2-9.4,4.1-18.9,6.5-28.2c1.5-5.9,3.5-11.7,5.3-17.5c-0.2,0.7-0.4,1.5-0.6,2.2
	C128,101.8,124.2,116.3,120.4,130.7C120.5,130.8,120.5,130.8,120.4,130.7z M121.1,132c5.8-11.4,7.8-25,10.6-37.4
	c1.9-8.4,4.2-16.2,7-23.9c-0.5,5.8-0.2,11.7-0.5,17.6c-0.8,15.2-8.4,31.2-16.9,43.5C121.2,131.8,121.2,131.9,121.1,132L121.1,132z
	 M142.2,104.2c-2.5,8-9.2,28.9-20.1,27.8c7.8-9.5,12.7-21.4,15.6-33.3c2.6-10.7,1.6-21.5,3.1-32.2
	C140.9,79.2,146.3,91.3,142.2,104.2z M170,52c5.3,6.4,7.3,14,8.7,22.1c1.5,8.6,8.3,21.3,3.7,29.5c0.5-7.9-1.9-15.1-4.7-22.5
	c-3.7-9.8-5.6-20.1-8.4-30.1C169.4,51.3,169.7,51.6,170,52z M166.9,47.7c1.7,8.3,3.8,16.5,6.2,24.5c3,10.4,8.4,19.9,8.3,30.9
	c-6.5-18.6-10.9-36.7-14.7-56C166.7,47.3,166.8,47.5,166.9,47.7z M180.4,103.3c-13.1-13-17.4-37.5-15.1-57.5
	C166,65.1,172.2,85.9,180.4,103.3z M165.2,70.8c1.8,11.2,4.5,26.5,14.1,33.8c-6.7-2.9-15.1-20.3-16.5-23.9
	c-4.6-11.9-2.4-22.8,0.9-34.4C163,54.4,164,62.7,165.2,70.8z M132.5,33.8C132.5,33.7,132.5,33.7,132.5,33.8c0,0,0-0.1-0.1-0.2
	c0-0.1-0.1-0.4-0.1-0.4c-0.1-0.4-0.2-0.8-0.2-1.2c0-0.7,0.1-1.7,0.4-2.4c0.5-1.6,1.4-2.4,3.1-1.8c0.1,0.1,0.3,0.1,0.4,0.2
	c-0.5,0.7-0.7,1.5-1,2.4c-0.5,1.3-1.2,2.5-2.2,3.4C132.6,33.8,132.6,33.8,132.5,33.8C132.6,33.8,132.5,33.8,132.5,33.8z M135.6,35.5
	c0.6-0.5,0.9-1,1.2-1.6c0.6-0.3,1.2-0.8,1.7-1.3c0.1,0,0.1,0,0.2,0c-0.1,0.3-0.1,0.6-0.2,0.9C138,34.9,136.9,35.5,135.6,35.5z
	 M117.1,43.6c-3.3-3.8-8.1-6.5-12.9-7.6c-0.1,0-0.1,0-0.2,0c-1.5-1.4-3-2.9-4.5-4.4c8,2.9,15.5,5.7,20.9,12.7
	C119.3,44.3,118.2,44,117.1,43.6z M117.7,37.2c0.9,1.7,1.4,3.5,2.1,5c-4.9-6.1-13-12-20.9-11.4c-0.1,0-0.2,0.1-0.2,0.1
	c-0.2-0.2-0.5-0.5-0.7-0.7C105.4,29.2,113.6,29.5,117.7,37.2z"/>
</svg>
