<svg xmlns="http://www.w3.org/2000/svg" width="153.535" height="57.334" viewBox="0 0 153.535 57.334">
  <g id="Group_3" data-name="Group 3" transform="translate(-2001.549 -5.167)">
    <g id="Group_1" data-name="Group 1" transform="translate(2001.549 5.167)">
      <path id="Path_1" data-name="Path 1" d="M2023.04,53.01c-.491-.1-1.163-.218-1.831-.359a1.153,1.153,0,0,1-1.016-1.352,1.35,1.35,0,0,1,1.225-1.333,3.672,3.672,0,0,1,2.167.38c.852.4,1.658.9,2.494,1.332.519.27.267.428-.055.612A6.516,6.516,0,0,1,2023.04,53.01Z" transform="translate(-2013.653 -34.237)" fill="#629a20"/>
      <path id="Path_2" data-name="Path 2" d="M2049.441,30.271c-.5-1.529-1.3-2.942-1.221-4.6.057-1.177.791-1.877,1.766-1.716a1.172,1.172,0,0,1,.934.671C2051.578,26.088,2050.8,29.107,2049.441,30.271Z" transform="translate(-2031.857 -17.356)" fill="#629a20"/>
      <path id="Path_3" data-name="Path 3" d="M2038.343,68.37a5.9,5.9,0,0,1-5.5,1.719,1.1,1.1,0,0,1-.826-1.24,1.369,1.369,0,0,1,1.132-1.411,5.009,5.009,0,0,1,2.609.119C2036.6,67.815,2037.435,68.084,2038.343,68.37Z" transform="translate(-2021.336 -45.532)" fill="#629a20"/>
      <path id="Path_4" data-name="Path 4" d="M2067.968,37.232a5.876,5.876,0,0,1-1.239,3.735c-.12.156-.338.588-.516.073-.508-1.468-1.25-2.882-1.083-4.518a1.481,1.481,0,0,1,1.083-1.462,1.231,1.231,0,0,1,1.657.985A10.772,10.772,0,0,1,2067.968,37.232Z" transform="translate(-2042.827 -24.538)" fill="#629a20"/>
      <path id="Path_5" data-name="Path 5" d="M2033.031,23.519a10.413,10.413,0,0,1-2.362-3.646c-.287-.874-.068-1.465.616-1.714a1.507,1.507,0,0,1,1.808.918A6.917,6.917,0,0,1,2033.031,23.519Z" transform="translate(-2020.381 -13.56)" fill="#629a20"/>
      <path id="Path_6" data-name="Path 6" d="M2018.044,35.864a8.974,8.974,0,0,1-2.374-.186c-.694-.165-1.182-.556-1.11-1.283a1.257,1.257,0,0,1,1.355-1.162,4.557,4.557,0,0,1,2.778,1.157c.471.349,1.272.754,1.155,1.224-.109.443-1.01.134-1.55.248A1.267,1.267,0,0,1,2018.044,35.864Z" transform="translate(-2009.995 -23.394)" fill="#629a20"/>
      <path id="Path_7" data-name="Path 7" d="M2129.383,116.056a8.927,8.927,0,0,1,5.243-.859c1,.174,1.593.9,1.46,1.666-.145.84-.831,1.212-1.918,1.044A13.929,13.929,0,0,1,2129.383,116.056Z" transform="translate(-2084.573 -76.558)" fill="#629a20"/>
      <path id="Path_8" data-name="Path 8" d="M2117.545,99.284a2.92,2.92,0,0,1,1.664-.712c1.227-.326,2.433-.809,3.756-.419a1.382,1.382,0,0,1,1.153,1.381,1.316,1.316,0,0,1-1.142,1.3,3.067,3.067,0,0,1-1.44.021A17.362,17.362,0,0,1,2117.545,99.284Z" transform="translate(-2076.884 -65.464)" fill="#629a20"/>
      <path id="Path_9" data-name="Path 9" d="M2096.874,120.467a8.416,8.416,0,0,1,1.332,4.761,1.435,1.435,0,0,1-1.461,1.477c-.761-.035-1.126-.55-1.115-1.615a5.317,5.317,0,0,1,.093-1.191A23.857,23.857,0,0,1,2096.874,120.467Z" transform="translate(-2062.652 -80.05)" fill="#629a20"/>
      <path id="Path_10" data-name="Path 10" d="M2114,132.4a8,8,0,0,1,1.828,4.433,1.447,1.447,0,0,1-1.253,1.735c-.794.035-1.27-.579-1.334-1.644A14.086,14.086,0,0,1,2114,132.4Z" transform="translate(-2074.084 -87.798)" fill="#629a20"/>
      <path id="Path_11" data-name="Path 11" d="M2130.049,142.95c.078-.3-.244-1.106.211-1.273.415-.152.8.589,1.178.961a2.569,2.569,0,0,1,.817,3.128c-.192.435-.428.831-.985.786a1.087,1.087,0,0,1-.935-.874A6.125,6.125,0,0,1,2130.049,142.95Z" transform="translate(-2084.977 -93.813)" fill="#629a20"/>
      <path id="Path_12" data-name="Path 12" d="M2139.8,132.6a5.909,5.909,0,0,1,2.572.337,1.006,1.006,0,0,1,.736.847c.049.511-.263.774-.669.985a2.5,2.5,0,0,1-2.8-.329,2.628,2.628,0,0,1-.36-.365c-.35-.457-1.228-.82-1.024-1.287C2138.445,132.364,2139.356,132.674,2139.8,132.6Z" transform="translate(-2090.319 -87.904)" fill="#629a20"/>
      <path id="Path_13" data-name="Path 13" d="M2030.891,50.546c-1.39,2.593-2.722,5.214-3.945,7.89A1.607,1.607,0,0,1,2025,59.454c-.846-.144-1.142-.727-1.258-1.513a39.807,39.807,0,0,1-.187-4.884c-.011-.436.233-1.1-.171-1.254-.388-.147-.7.488-1.009.8q-3.612,3.665-7.192,7.361a12.449,12.449,0,0,1-2.335,2.009,2.488,2.488,0,0,1-3.479-.406,2.041,2.041,0,0,0-2.606-.59,3.211,3.211,0,0,1-1.6.231,2.429,2.429,0,0,1-2.225-3.468,2.226,2.226,0,0,0-.534-3.171c-1.195-1.076-1.088-2.276.017-3.473,3.083-3.338,6.315-6.533,9.561-9.712a3.067,3.067,0,0,0,.917-1.205,8.2,8.2,0,0,0-2.011-.008c-1.115,0-2.233.02-3.346.085a4.143,4.143,0,0,1-2.642-.851c-.733-.5-.751-1-.045-1.575a18.414,18.414,0,0,1,3.62-2.11c1.8-.879,3.6-1.745,5.4-2.615.231-.111.474-.205.575-.512a19.806,19.806,0,0,0-2.567-1.136,12.846,12.846,0,0,1-7.483-11.19c-.317-3.989-.331-8-.52-12-.037-.788.256-.98.984-.955,3.8.135,7.614.121,11.407.381a14.657,14.657,0,0,1,10.162,4.539,11.228,11.228,0,0,1,2.483,4.455c.072.236.067.586.359.632.354.056.442-.314.562-.554,1.311-2.632,2.792-5.181,3.9-7.915a1.478,1.478,0,0,1,1.827-1.035,1.461,1.461,0,0,1,1.363,1.4,44.158,44.158,0,0,1,.34,5.477c.008.3,0,.608,0,1.174l10.02-9.876c1.8-1.121,2.891-1.1,4.225.084.3.263.589.531.873.808.175.171.376.322.6.163.386-.279.916-.328,1.205-.756.168.168.338.092.545.056a2.791,2.791,0,0,1,2.94.941,2.832,2.832,0,0,1,.157,3.017,5.445,5.445,0,0,1-.267.538c-.321.534-.223.9.3,1.3,1.8,1.368,1.908,3.055.339,4.653q-4.5,4.587-9.011,9.168c-.161.163-.323.324-.478.492-.133.144-.316.285-.218.514s.341.172.527.169c1.259-.021,2.518-.037,3.775-.087a6.031,6.031,0,0,1,2.892.675c1.05.505,1.112,1.257.08,1.887s-2.1,1.154-3.167,1.7c-1.957,1.007-3.923,1.995-5.881,3-.249.128-.626.253-.584.554.038.269.416.356.684.454a18.455,18.455,0,0,1,4.173,1.755,12.594,12.594,0,0,1,5.03,7.519c.834,3.066.783,6.231,1.017,9.363.152,2.025.195,4.058.39,6.078.08.821-.2.905-.873.821-1.474-.186-2.951-.369-4.433-.484-2.451-.19-4.907-.335-7.362-.482a16.948,16.948,0,0,1-5.4-1.236l-2.228-1.211h0a4.756,4.756,0,0,0-.49-.46,10.638,10.638,0,0,1-4.546-6.051c-.131-.508-.344-.994-.549-1.575A2.992,2.992,0,0,0,2030.891,50.546Zm-.681-15.066a1.675,1.675,0,0,0-.582-.977c-2.884-2.872-6.4-3.5-10.22-2.71-2.919.6-5.451,2.185-8.078,3.5-1.685.846-3.349,1.734-5.011,2.626-.259.139-.6.311-.548.691.043.288.333.363.586.428a10.589,10.589,0,0,0,6.331.065c.779-.274,1.59-.457,2.388-.676.3-.083.72-.233.889,0,.215.3-.176.549-.374.765-1.364,1.494-2.82,2.9-4.266,4.311-2.486,2.433-4.991,4.849-7.312,7.444a6.383,6.383,0,0,0-.843,1.074,1.993,1.993,0,0,0,.441,2.425,1.661,1.661,0,0,0,2.181-.247c.22-.182.414-.395.618-.595q3.828-3.752,7.653-7.506a1.565,1.565,0,0,1,1.335-.634c.319.044.513.157.219.489-.246.278-.466.58-.728.843q-2.967,2.975-5.947,5.938a53.487,53.487,0,0,0-4.591,4.858,1.572,1.572,0,0,0,.221,2.294c.668.677,1.15.7,2.043.078a6.8,6.8,0,0,0,.792-.652c3.244-3.094,6.4-6.277,9.551-9.465a4.237,4.237,0,0,1,1.24-1.042.533.533,0,0,1,.638.058c.195.2,0,.386-.1.53a10.3,10.3,0,0,1-.92,1.124c-1.807,1.832-3.633,3.644-5.443,5.474a20.3,20.3,0,0,0-2.451,2.743,1.742,1.742,0,0,0,.395,2.379,1.5,1.5,0,0,0,2.086-.149c.239-.2.465-.423.689-.644,3.9-3.863,7.713-7.8,11.737-11.538a4.3,4.3,0,0,1,.6-.467.629.629,0,0,1,.729,0c.276.2.029.424-.024.615-.136.495-.322.976-.488,1.462a15.78,15.78,0,0,0-1.007,5.45,3.423,3.423,0,0,0,.468,2.054c.214.292.368.477.71,0a31.758,31.758,0,0,0,2.124-3.99,57.478,57.478,0,0,0,3.816-8.329,7.829,7.829,0,0,0-3.037-9.444,6.577,6.577,0,0,0-8.72.908,4.517,4.517,0,0,0,.705,6.831,2.869,2.869,0,0,0,3.772-.253,3.022,3.022,0,0,0,.709-3.74,1.616,1.616,0,0,0-1.746-.969,2.144,2.144,0,0,0-1.747,1.683,1.542,1.542,0,0,0,.924,1.675c.222.122.565.136.656.51a6.348,6.348,0,0,1-.759.165,1.9,1.9,0,0,1-2.027-1.226,3.24,3.24,0,0,1,2.62-3.808,3.454,3.454,0,0,1,3.72,3.133,3.75,3.75,0,0,1-1.9,3.593,4.335,4.335,0,0,1-4.8.093c-4.414-2.754-2.409-8.046.524-9.721a7.616,7.616,0,0,1,6.688-.522A14.234,14.234,0,0,0,2030.21,35.48Zm9.229-8.411a3.479,3.479,0,0,0-1.014-1.787,1.51,1.51,0,0,0-2.161-.075,2.286,2.286,0,0,0-.317,2.428,1.883,1.883,0,0,0,1.733,1.316,3.063,3.063,0,0,0,3.224-3.051,3.543,3.543,0,0,0-1.9-3.405,4.015,4.015,0,0,0-4.388.092,6.614,6.614,0,0,0-2.6,3.423c-1.133,3.1.778,7.858,4.746,9.289,2.331.841,4.448.307,6.552-.617,3.8-1.668,7.448-3.636,11.163-5.475.238-.118.637-.165.595-.514-.038-.311-.406-.366-.675-.449a10.038,10.038,0,0,0-6.318.182c-.839.283-1.669.594-2.5.9-.27.1-.579.252-.776-.038-.165-.242.046-.493.206-.69a16.909,16.909,0,0,1,1.111-1.3c2.379-2.391,4.788-4.753,7.155-7.157a35.4,35.4,0,0,0,4.311-4.643,1.672,1.672,0,1,0-2.629-2.066q-3.966,3.921-7.9,7.869a2.05,2.05,0,0,1-1.821.7,5.98,5.98,0,0,1,1.385-1.89q4.692-4.708,9.379-9.42a3.006,3.006,0,0,0,.775-1.119,1.758,1.758,0,0,0-.272-1.927,1.533,1.533,0,0,0-1.829-.2,3.406,3.406,0,0,0-1.211.793c-2.181,2.145-4.349,4.3-6.529,6.448q-1.862,1.832-3.751,3.636c-.3.284-.805.527-1.074.257-.311-.313.184-.63.4-.885,1.873-2.244,4.061-4.183,6.1-6.272.718-.738,1.484-1.429,2.176-2.19a1.915,1.915,0,0,0-.083-2.768c-.729-.728-1.421-.692-2.412.135-.219.183-.425.381-.627.583-3.415,3.416-6.818,6.844-10.251,10.242a8.479,8.479,0,0,1-1.983,1.75.714.714,0,0,1-.735.055c-.287-.207-.039-.463.035-.693a32.109,32.109,0,0,0,1.12-3.957,9.258,9.258,0,0,0-.458-5.524c-.417.124-.479.468-.612.736q-1.825,3.689-3.626,7.39a44.239,44.239,0,0,0-2.406,5.5c-1.3,3.973.1,7.331,2.6,10.384a1.231,1.231,0,0,0,.777.472.9.9,0,0,0,0-.3,8.358,8.358,0,0,0-.392-.76,8.32,8.32,0,0,1-1.1-5.765c.734-4.673,5.3-7.074,9.288-4.857a4.374,4.374,0,0,1,1.685,6.08,4.16,4.16,0,0,1-5.47,1.506,3.083,3.083,0,0,1-1.278-4.32,2.946,2.946,0,0,1,4.293-.67C2040.051,25.12,2040.178,25.932,2039.44,27.069Zm-17.582-11.653.088-.01,2.1,9.325c.21.934.378.992,1.147.406a7.211,7.211,0,0,0,2.787-5.906c.087-3.623-2.872-7.76-6.6-9.386a17.349,17.349,0,0,0-6.086-1.261,84.826,84.826,0,0,0-8.818-.306c-.976.047-1.3.423-1.284,1.428.014.971.086,1.941.131,2.912a74.511,74.511,0,0,0,.554,8.806c.68,4.1,2.566,7.351,6.465,9.2,3.8,1.8,7.224.861,9.557-2.623.355-.53.329-.832-.348-.933-2-.3-4.01-.589-6.014-.9-1.336-.2-2.67-.433-4-.65l.025-.242q3.9,0,7.8,0c.361,0,.871.115,1.01-.242s-.311-.633-.559-.89a14.1,14.1,0,0,0-5.087-3.406,41.811,41.811,0,0,0-5.514-1.438l6.07.346a52.019,52.019,0,0,0-3.848-4.517,4.512,4.512,0,0,0-2.347-1.5c-.245-.05-.574-.055-.756-.412.527-.173.281-.953.81-1.062.66-.136,1.436-.421,1.6.745a2.768,2.768,0,0,0,.73,1.243,42.118,42.118,0,0,0,4.747,4.179,28.164,28.164,0,0,1-.279-7.181c.167,1.013.243,2.037.407,3.045a15.55,15.55,0,0,0,4.643,8.943c.2.192.365.535.681.418.344-.127.175-.508.177-.764C2021.865,20.328,2021.858,17.872,2021.858,15.415Zm17.49,28.529c-.127,3.693.123,7.2-.252,10.714q-.355-1.354-.589-2.729c-.525-3.094-1.054-6.188-1.538-9.288-.109-.692-.368-.661-.823-.347-.141.1-.284.192-.419.3-2.856,2.227-3.481,5.439-2.17,8.893,1.722,4.536,5.426,6.606,10,7.3a101.23,101.23,0,0,0,10.528.519c1.548.072,1.869-.222,1.774-1.764-.166-2.681-.256-5.364-.392-8.044a23.992,23.992,0,0,0-.473-4.082c-1.033-4.576-4.143-8.443-9.237-9.346a6.611,6.611,0,0,0-6.623,3.476c-.295.653-.138.952.559,1.049,2.036.283,4.07.581,6.1.876q2.028.294,4.056.595l-.016.229h-1.076c-2.374,0-4.748-.012-7.123,0-.271,0-.65-.093-.789.183-.167.334.189.562.376.794a11.384,11.384,0,0,0,3.731,2.964,24.175,24.175,0,0,0,5.7,1.878,28.585,28.585,0,0,1-4.033-.109c-.538-.02-.76.223-.364.639,2.038,2.144,3.548,4.911,6.7,5.77.03.008.038.092.083.208-1.008.015-.75.449-.377,1.011a4.9,4.9,0,0,1,.835,1.557c-.463-.253-.787-.427-1.109-.606-1.457-.813-1.235-.591-1.347.732,0,.04-.047.076-.116.18-.146-.481-.258-.918-.411-1.34-.322-.88-.29-1.922-.957-2.635a53.3,53.3,0,0,0-4.686-4.39c-.026-.022-.1.016-.127.021-.291,2.267.855,4.408.58,6.911-.378-1.17-.774-2.077-1.025-3.045a23.55,23.55,0,0,0-1.856-5.592A9.732,9.732,0,0,0,2039.348,43.944Zm-2.642-7.482,0,.02a4.721,4.721,0,0,1-.6-.032c-.257-.045-.542-.145-.68.152-.113.243.128.422.26.6.4.523.828,1.02,1.219,1.547.339.456.649.506,1.015.038.353-.45.71-.9,1.093-1.322.5-.55.189-.725-.347-.792C2038.014,36.589,2037.359,36.531,2036.706,36.462Zm-2.99,6.176a13.567,13.567,0,0,0,1.828-1.436.413.413,0,0,0,.087-.668,24.582,24.582,0,0,0-2.466-2.332Zm-6.382-13.506.224-.106c-.127-.722-.228-1.45-.39-2.164-.113-.5.02-1.352-.413-1.415-.5-.073-.991.558-1.423.971a.56.56,0,0,0-.006.9C2025.98,27.936,2026.663,28.528,2027.334,29.132Zm-1.969,1.67a2.707,2.707,0,0,0-.7-1.1c-1.142-1.505-1.337-1.5-2.442,0-.033.046-.071.09-.1.138-.225.364-.094.646.281.713A9.484,9.484,0,0,0,2025.364,30.8Z" transform="translate(-2001.549 -5.167)" fill="#629a20"/>
    </g>
    <g id="Group_2" data-name="Group 2" transform="translate(2060.964 21.915)">
      <path id="Path_14" data-name="Path 14" d="M2362.612,65.154c-.06-.326-.137-.5-.526-.41-1.739.4-2.709-.4-3.474-2.461-.207-.561-.137-.908.515-1.206a4.068,4.068,0,0,0,2.264-4.792,3.925,3.925,0,0,0-4.083-3.116c-2.306-.007-4.613.035-6.92-.021-.827-.021-.978.319-.946,1.02.024.634.406.7.883.68.645-.025,1.178.046.9.922-.021.07.021.161.021.245v7.652h.035c0,.74-.017,1.476,0,2.215.021.7.54.7,1.062.722.554.021.764-.186.75-.771-.035-1.318,0-2.64.007-3.958,0-.228-.081-.5.344-.477a14.146,14.146,0,0,0,1.889-.025c.961-.084,1.462.259,1.546,1.272a4.93,4.93,0,0,0,.509,1.385,4.146,4.146,0,0,0,4.021,2.594C2362.689,66.6,2362.836,66.409,2362.612,65.154Zm-5.265-5.447c-.578.007-1.157,0-1.732,0v.021c-.631,0-1.266-.018-1.893.007-.435.014-.673-.095-.662-.585q.026-1.856.007-3.705c-.007-.424.144-.578.575-.571,1.262.018,2.528-.025,3.79.011a2.338,2.338,0,0,1,2.278,2.335A2.306,2.306,0,0,1,2357.347,59.707Z" transform="translate(-2286.907 -53.076)" fill="#629a20"/>
      <path id="Path_15" data-name="Path 15" d="M2311,57.957c0,1.455.023,2.911-.008,4.365a2.335,2.335,0,0,0,1.135,2.06,3.808,3.808,0,0,0,5.022-.811,4.789,4.789,0,0,0,.471-2.875c.048-2.324.012-4.652-.039-6.977-.016-.752.519-.494.847-.538.512-.069,1.1,0,1.046.692-.2,2.385.091,4.779-.166,7.161a14.624,14.624,0,0,1,.014,1.964c-.719,3.058-3.492,3.989-6.062,3.613a4.607,4.607,0,0,1-4.16-5.033c.107-1.806-.09-3.618.085-5.428.109-1.125-.008-1.241-1.088-1.289-.635-.028-.809-.368-.808-.893,0-.495.166-.843.771-.818.685.028,1.372,0,2.058,0,.568,0,.855.251.847.852-.017,1.319-.006,2.64-.006,3.959Z" transform="translate(-2259.534 -53.075)" fill="#629a20"/>
      <path id="Path_16" data-name="Path 16" d="M2404.765,65.384q-.8-1.714-1.514-3.467-1.646-4.033-3.242-8.083a1.128,1.128,0,0,0-1.311-.866c-.7-.14-.887.393-1.094.873-.421.978-.827,1.963-1.237,2.948q-1.756,4.217-3.506,8.434c-.179.431-.389.9.239,1.181a1.073,1.073,0,0,0,1.493-.526c.347-.778.68-1.56.985-2.356a.68.68,0,0,1,.74-.494q2.555.011,5.114-.018c.351,0,.561.1.634.47a25.15,25.15,0,0,0,1.048,2.587c.2.641.88.477,1.353.322S2404.985,65.853,2404.765,65.384Zm-4.42-4.028c-1.069-.056-2.142-.032-3.214-.028-.47,0-.67-.123-.445-.631.708-1.623,1.4-3.253,2.163-5.048.729,1.77,1.377,3.362,2.037,4.95C2401.112,61.153,2401.014,61.391,2400.344,61.356Z" transform="translate(-2314.989 -52.945)" fill="#629a20"/>
      <path id="Path_17" data-name="Path 17" d="M2250.323,65.222a2,2,0,0,1-.165-.379q-2.256-5.521-4.5-11.049c-.238-.582-.578-.925-1.269-.813-.652-.144-.886.322-1.1.827-.61,1.469-1.227,2.93-1.84,4.4-.957,2.278-1.921,4.55-2.867,6.832-.211.508-.467,1.069.277,1.4a1.053,1.053,0,0,0,1.476-.7c.312-.733.631-1.458.918-2.2a.68.68,0,0,1,.736-.5q2.555.016,5.114-.014a.56.56,0,0,1,.606.421c.312.817.655,1.623.975,2.44a1.063,1.063,0,0,0,1.486.533C2250.705,66.105,2250.628,65.667,2250.323,65.222Zm-4.15-3.863c-1.125-.039-2.254-.018-3.379-.025-.351,0-.719.007-.484-.533.719-1.651,1.434-3.3,2.191-5.048.8,1.7,1.465,3.341,2.107,4.988C2246.786,61.2,2246.709,61.376,2246.173,61.359Z" transform="translate(-2214.768 -52.951)" fill="#629a20"/>
      <path id="Path_18" data-name="Path 18" d="M2301.224,109.81c.01-.326-.077-.473-.469-.477a3.582,3.582,0,0,1-3.677-3.3c-.06-.445.01-.722.484-.88a3.519,3.519,0,0,0,2.317-2.285,3.727,3.727,0,0,0-3.327-5.132c-1.374-.039-2.751-.021-4.125-.021-1.073,0-2.146.021-3.215.014-.343,0-.5.109-.512.47s.13.5.473.515c.274.007.55.07.824.053.466-.032.55.224.547.61-.007,1.669,0,3.341,0,5.013h-.007c0,1.805.01,3.614-.007,5.419,0,.484.147.715.659.7.564-.014.487-.407.487-.757.007-1.262.035-2.531-.007-3.793-.017-.5.081-.694.614-.673a24.888,24.888,0,0,0,2.8,0c.638-.049.834.245.88.771a6.9,6.9,0,0,0,.929,2.626,3.82,3.82,0,0,0,3.947,1.784C2301.3,110.37,2301.213,110.1,2301.224,109.81Zm-4.918-5.535c-1.307.018-2.622-.042-3.933.035-.512.032-.754-.165-.732-.715.031-.712.01-1.427.01-2.138s0-1.427,0-2.142c0-.284-.018-.571.392-.568a30.82,30.82,0,0,1,4.76.088,2.6,2.6,0,0,1,2.152,2.349A2.667,2.667,0,0,1,2296.306,104.275Z" transform="translate(-2247.458 -82.017)" fill="#629a20"/>
      <path id="Path_19" data-name="Path 19" d="M2255.593,97.741c1.542,0,3.083.01,4.624-.007.4,0,.624.066.619.53s-.266.522-.643.52c-1.978-.012-3.956.008-5.933-.022-.736-.011-1.1.159-1.029,1.011a24.092,24.092,0,0,1,0,3.128c-.034.684.258.846.874.835,1.623-.028,3.247-.009,4.871-.016.4,0,.788-.043.806.543.019.63-.413.523-.788.524-1.706.006-3.413.019-5.119.011-.468,0-.682.106-.66.651.044,1.1.008,2.2-.013,3.3-.01.494.113.733.695.724,2.228-.038,4.458-.005,6.687-.035.4-.005.553.066.557.473s-.059.566-.546.561c-2.661-.03-5.324-.016-7.985,0-.525,0-.6-.348-.6-.7,0-1.9.041-3.79.04-5.686,0-1.618-.033-3.236-.071-4.854-.015-.654-.569-.433-.929-.521-.274-.067-.625.142-.817-.215-.233-.434.053-.782.656-.784,1.569-.005,3.138,0,4.706,0Z" transform="translate(-2222.422 -82.022)" fill="#629a20"/>
      <path id="Path_20" data-name="Path 20" d="M2209.131,104.6c0-1.676-.033-3.353.016-5.027.021-.684-.2-.966-.872-.929a3.7,3.7,0,0,1-.657-.045c-.28-.034-.337-.233-.337-.478s.045-.441.33-.48c.082-.011.164-.013.247-.018,2.862-.152,2.393-.229,2.38,2.223-.006,1.07.078,2.141.091,3.211,0,.4.168.525.545.512,2.192-.076,4.385-.1,6.577-.02.321.011.357-.128.357-.389,0-1.563.012-3.125.014-4.688,0-.443-.089-.889.626-.864.687.024.637.44.616.9-.17,3.707-.125,7.414-.075,11.122.006.425-.024.742-.593.748-.54.007-.551-.213-.58-.683-.091-1.459.065-2.911.039-4.367-.01-.582-.219-.773-.763-.769q-3.134.021-6.267.006c-.406,0-.513.152-.511.534q.014,2.257-.024,4.513c-.006.346.115.816-.526.8-.567-.01-.649-.28-.637-.788.037-1.676.014-3.353.014-5.029Z" transform="translate(-2194.58 -81.923)" fill="#629a20"/>
      <path id="Path_21" data-name="Path 21" d="M2279.864,54.879c-.22,0-.44,0-.66,0-1.888.043-1.433-.267-1.538,1.551-.179,3.119.117,6.245,0,9.37-.021.561-.115.808-.682.814s-1.116-.083-1.131-.776c-.039-1.758-.018-3.518-.021-5.278,0-1.675-.022-3.35,0-5.024.008-.571-.239-.674-.748-.656-.989.035-1.981-.018-2.971,0-.613.014-.766-.359-.762-.837s.09-.913.771-.908c3.133.023,6.267.031,9.4,0,.663-.006.641.463.645.819s.057.9-.57.909c-.578.012-1.156,0-1.733,0Z" transform="translate(-2236.191 -53.073)" fill="#629a20"/>
      <path id="Path_22" data-name="Path 22" d="M2380.838,100.474a3.883,3.883,0,0,0-3.73-2.717c-1.072-.018-2.145,0-3.218,0v-.011c-1.213,0-2.422,0-3.635,0-.379,0-.722-.007-.726.533s.372.424.687.452c1.129.088,1.15.105,1.15,1.206-.01,3.3-.018,6.594-.042,9.889,0,.491.172.7.663.715.543.021.547-.308.547-.7,0-1.1.056-2.2.014-3.3-.021-.645.238-.8.824-.782q1.814.047,3.628,0a3.72,3.72,0,0,0,2.639-.943A4.06,4.06,0,0,0,2380.838,100.474Zm-4.213,4.238c-.494-.011-.989,0-1.483,0v0c-.687,0-1.374-.014-2.061.007-.34.011-.488-.088-.519-.449-.147-1.7.01-3.4.01-5.1,0-.319.151-.424.456-.421,1.35.018,2.706-.077,4.042.046,2.047.182,2.78,1.307,2.745,3.134A2.828,2.828,0,0,1,2376.625,104.712Z" transform="translate(-2299.956 -82.038)" fill="#629a20"/>
      <path id="Path_23" data-name="Path 23" d="M2343.418,109.6c-1.613-3.842-3.292-7.659-4.753-11.564a.89.89,0,0,0-.932-.645c-.484,0-.666.27-.824.659-.406,1.017-.845,2.019-1.265,3.029q-1.73,4.143-3.446,8.29c-.129.319-.333.691.172.9s.785-.049.964-.477c.33-.785.68-1.563.96-2.366a.739.739,0,0,1,.768-.568c1.816-.116,3.632.011,5.448-.025a.761.761,0,0,1,.81.55c.329.841.7,1.672,1,2.524a.483.483,0,0,0,.592.386C2343.517,110.276,2343.632,110.111,2343.418,109.6Zm-3.432-3.814c-1.482-.011-2.969-.018-4.455-.011-.417,0-.55-.119-.375-.533.865-2.016,1.718-4.035,2.681-6.3.887,2.268,1.865,4.224,2.541,6.306C2340.52,105.687,2340.383,105.789,2339.987,105.785Z" transform="translate(-2275.611 -81.81)" fill="#629a20"/>
      <path id="Path_24" data-name="Path 24" d="M2413.5,103.975c.831-1.384,1.616-2.607,2.312-3.88.437-.8,1.074-1.458,1.452-2.295.173-.383.564-.4.922-.162.39.257.234.509.036.825-1.24,1.972-2.448,3.966-3.688,5.938a5.18,5.18,0,0,0-.411,3.13c.024.745-.088,1.482-.031,2.221.033.421-.1.624-.532.626-.413,0-.6-.181-.6-.6.01-1.238-.013-2.478.021-3.715a2.464,2.464,0,0,0-.532-1.582c-.665-.937-1.213-1.957-1.806-2.944-.508-.845-1.023-1.687-1.509-2.546a.7.7,0,0,0-.683-.351c-.356-.016-.712-.054-1.068-.084a.34.34,0,0,1-.353-.372c0-.185-.064-.39.119-.537a5.1,5.1,0,0,1,2.578.065c.34.5.625,1.028.935,1.544Z" transform="translate(-2324.302 -81.87)" fill="#629a20"/>
      <path id="Path_25" data-name="Path 25" d="M2176.18,97.727c1.457,0,2.915.009,4.371-.006.414,0,.7.055.684.563-.018.471-.318.506-.677.5-1.042-.018-2.086.006-3.125-.056-.531-.032-.689.169-.687.643q.016,3.907.022,7.814c0,.879-.03,1.758-.025,2.637,0,.394-.009.712-.54.7-.511-.007-.653-.26-.648-.73q.04-3.489.045-6.979c0-1.093-.1-2.189-.051-3.279.033-.7-.3-.772-.833-.762-.906.016-1.813.029-2.719.01-.4-.008-.969.143-.948-.571.021-.663.552-.488.926-.492,1.4-.016,2.8-.006,4.2-.006Z" transform="translate(-2171.048 -82.015)" fill="#629a20"/>
      <path id="Path_26" data-name="Path 26" d="M2208.368,65.523c0,.344.21.848-.347.964-.529.112-1.129.228-1.511-.322-1.318-1.889-2.612-3.8-3.919-5.693l-.452-.652-2.17-3.313-.018-.028v.091a.954.954,0,0,0-.13-.1c.049.315.091.592.13.859V58.2a.751.751,0,0,0,0,.7c.007.014.01.032.018.046v1.805a.167.167,0,0,0,.017.035c0,.333.007.666.014,1,0,.168-.007.333-.01.5l-.021.2c-.007.091-.014.179-.018.27-.052.789-.024,1.581,0,2.373.007.207.01.41.018.613.017.7-.347.838-.922.82s-.9-.221-.894-.89c.021-3.313,0-6.629,0-9.941,0-.652-.207-1.083-.964-.95-.677.116-.869-.221-.873-.834,0-.641.273-.792.9-.848a3.477,3.477,0,0,1,3.831,1.833c1.609,2.759,3.59,5.3,5.517,8.083V59.571c0-1.917.021-3.835,0-5.752-.01-.859.6-.7,1.08-.708.557-.007.831.277.813.883-.045,1.5-.056,3.015-.066,4.522C2208.382,60.85,2208.392,63.188,2208.368,65.523Z" transform="translate(-2187.461 -53.021)" fill="#629a20"/>
      <path id="Path_27" data-name="Path 27" d="M2206.74,69.878v1l-.01.021V69.85C2206.733,69.861,2206.737,69.868,2206.74,69.878Z" transform="translate(-2194.222 -63.924)" fill="#629a20"/>
    </g>
    <path id="Path_28" data-name="Path 28" d="M2206.708,70.789a.429.429,0,0,0-.028.056V69.72c.01.025.018.049.028.074Z" transform="translate(-133.226 -41.925)" fill="#629a20"/>
    <path id="Path_29" data-name="Path 29" d="M2206.729,75.959c0,.168-.007.333-.011.5s-.031.312-.039.47V74.89a.717.717,0,0,0,.035.074C2206.719,75.3,2206.722,75.63,2206.729,75.959Z" transform="translate(-133.226 -45.283)" fill="#629a20"/>
    <path id="Path_30" data-name="Path 30" d="M2206.457,62.825v2.44c-.007-.014-.01-.032-.017-.046a.75.75,0,0,1,0-.7v-.869c-.039-.266-.081-.543-.13-.859a.984.984,0,0,1,.13.1V62.8Z" transform="translate(-132.985 -37.424)" fill="#629a20"/>
    <path id="Path_31" data-name="Path 31" d="M2206.642,79.93v3.256c-.007-.2-.01-.407-.018-.613-.024-.792-.053-1.584,0-2.373C2206.628,80.109,2206.635,80.021,2206.642,79.93Z" transform="translate(-133.17 -48.556)" fill="#629a20"/>
  </g>
</svg>
