<svg id="Group_91" data-name="Group 91" xmlns="http://www.w3.org/2000/svg" width="249.022" height="247.212" viewBox="0 0 249.022 247.212">
  <path id="Path_1" data-name="Path 1" d="M2032.493,63.22c-2.116-.413-5.015-.942-7.895-1.549-3.131-.66-4.656-2.636-4.381-5.831a5.821,5.821,0,0,1,5.282-5.746,15.831,15.831,0,0,1,9.345,1.638c3.672,1.731,7.15,3.866,10.756,5.745,2.236,1.165,1.151,1.845-.237,2.639C2041.623,62.25,2037.532,62.937,2032.493,63.22Z" transform="translate(-1992.018 17.724)" fill="#75ae09"/>
  <path id="Path_2" data-name="Path 2" d="M2053.5,51.252c-2.143-6.591-5.611-12.684-5.263-19.821.247-5.074,3.41-8.092,7.616-7.4a5.052,5.052,0,0,1,4.025,2.894C2062.718,33.218,2059.367,46.234,2053.5,51.252Z" transform="translate(-1977.683 4.432)" fill="#75ae09"/>
  <path id="Path_3" data-name="Path 3" d="M2059.3,71.854c-6.119,7.472-16.844,8.727-23.714,7.41-2.514-.482-3.648-2.734-3.562-5.347.108-3.225,1.765-5.378,4.881-6.083a21.6,21.6,0,0,1,11.248.514C2051.771,69.463,2055.381,70.619,2059.3,71.854Z" transform="translate(-1985.967 26.618)" fill="#75ae09"/>
  <path id="Path_4" data-name="Path 4" d="M2077.449,44.646a25.336,25.336,0,0,1-5.343,16.1c-.519.671-1.456,2.536-2.226.313-2.19-6.328-5.389-12.427-4.671-19.479.313-3.089,1.5-5.394,4.671-6.306,3.489-1,6.473.7,7.146,4.246A46.475,46.475,0,0,1,2077.449,44.646Z" transform="translate(-1969.046 10.087)" fill="#75ae09"/>
  <path id="Path_5" data-name="Path 5" d="M2041.261,41.5c-4.457-4.979-8.226-9.755-10.185-15.719-1.237-3.766-.294-6.316,2.656-7.392,2.891-1.055,6.52.787,7.794,3.957C2043.511,27.277,2043.49,34.542,2041.261,41.5Z" transform="translate(-1986.719 1.442)" fill="#75ae09"/>
  <path id="Path_6" data-name="Path 6" d="M2029.6,44.58a38.7,38.7,0,0,1-10.234-.8c-2.991-.71-5.1-2.4-4.784-5.532.314-3.182,2.6-4.953,5.843-5.012,4.683-.083,8.418,2.355,11.98,4.989,2.031,1.5,5.483,3.251,4.98,5.278-.471,1.909-4.354.577-6.683,1.07A5.464,5.464,0,0,1,2029.6,44.58Z" transform="translate(-1994.898 9.186)" fill="#75ae09"/>
  <path id="Path_7" data-name="Path 7" d="M2129.384,119.256c7.542-3.316,14.843-5.062,22.608-3.7,4.29.751,6.867,3.866,6.293,7.185-.625,3.62-3.581,5.228-8.27,4.5A60.054,60.054,0,0,1,2129.384,119.256Z" transform="translate(-1936.173 51.05)" fill="#75ae09"/>
  <path id="Path_8" data-name="Path 8" d="M2117.545,103.51c2.085-2.3,4.773-2.432,7.173-3.068,5.289-1.4,10.491-3.49,16.2-1.806,3.133.925,4.935,2.772,4.971,5.955s-2.1,4.817-4.925,5.6a13.227,13.227,0,0,1-6.209.089C2128.7,109.053,2123.267,106.25,2117.545,103.51Z" transform="translate(-1942.226 42.314)" fill="#75ae09"/>
  <path id="Path_9" data-name="Path 9" d="M2100.994,120.467c3.818,6.857,6.254,13.305,5.743,20.53-.282,4-2.956,6.52-6.3,6.368-3.283-.151-4.856-2.373-4.807-6.962a22.989,22.989,0,0,1,.4-5.137A102.975,102.975,0,0,1,2100.994,120.467Z" transform="translate(-1953.434 53.8)" fill="#75ae09"/>
  <path id="Path_10" data-name="Path 10" d="M2116.561,132.4c4.74,6.085,7.37,12.2,7.882,19.115.318,4.283-2.05,7.335-5.4,7.483-3.424.153-5.476-2.5-5.752-7.087C2112.894,145.384,2114.7,139.273,2116.561,132.4Z" transform="translate(-1944.432 59.901)" fill="#75ae09"/>
  <path id="Path_11" data-name="Path 11" d="M2130.192,147.233c.338-1.307-1.053-4.767.91-5.488,1.787-.656,3.463,2.539,5.081,4.144,4.588,4.545,5.637,8.7,3.523,13.489-.828,1.876-1.845,3.585-4.247,3.387-2.267-.187-3.386-1.817-4.033-3.768A26.408,26.408,0,0,1,2130.192,147.233Z" transform="translate(-1935.853 64.637)" fill="#75ae09"/>
  <path id="Path_12" data-name="Path 12" d="M2145.005,132.734c4.175-.128,7.705.014,11.091,1.451,1.717.729,2.984,1.685,3.174,3.65.213,2.205-1.136,3.337-2.884,4.246a10.782,10.782,0,0,1-12.056-1.421,11.26,11.26,0,0,1-1.55-1.575c-1.509-1.969-5.3-3.535-4.418-5.55C2139.154,131.72,2143.081,133.055,2145.005,132.734Z" transform="translate(-1931.646 59.984)" fill="#75ae09"/>
  <path id="Path_13" data-name="Path 13" d="M2128.067,200.832c-5.993,11.178-11.737,22.481-17.011,34.019-1.7,3.715-4.337,5.084-8.4,4.391-3.648-.621-4.924-3.136-5.425-6.522-1.037-7-.632-14.037-.805-21.059-.048-1.88,1.005-4.743-.738-5.4-1.673-.635-3.011,2.105-4.35,3.464q-15.574,15.8-31.009,31.737a53.667,53.667,0,0,1-10.069,8.662c-5.578,3.434-10.511,3.032-15-1.752-3.314-3.531-6.8-4.629-11.235-2.544a13.846,13.846,0,0,1-6.893,1c-7.884-.491-13.127-7.959-9.593-14.954,2.885-5.709,2.594-9.265-2.3-13.671-5.152-4.642-4.691-9.815.074-14.975,13.3-14.395,27.229-28.167,41.225-41.875,1.478-1.449,3.127-2.8,3.956-5.2-2.95-.722-5.834-.024-8.67-.035-4.81-.021-9.627.086-14.427.366-4.326.251-7.976-1.321-11.392-3.668-3.16-2.173-3.237-4.323-.2-6.792,4.722-3.836,10.186-6.443,15.607-9.1,7.746-3.791,15.524-7.524,23.292-11.274,1-.481,2.042-.886,2.481-2.21-3.386-2.3-7.446-3.118-11.068-4.9-20.08-9.876-30.532-26.417-32.264-48.249-1.365-17.2-1.429-34.5-2.24-51.743-.159-3.4,1.1-4.227,4.243-4.116,16.395.583,32.829.521,49.184,1.643,16.8,1.152,32.014,6.833,43.818,19.573a48.423,48.423,0,0,1,10.7,19.207c.308,1.019.287,2.527,1.55,2.727,1.525.24,1.907-1.353,2.425-2.39,5.653-11.349,12.039-22.337,16.806-34.126,1.538-3.8,3.869-5.048,7.878-4.463,3.482.509,5.328,2.365,5.878,6.02,1.177,7.843,1.266,15.726,1.464,23.614.034,1.31,0,2.622,0,5.06,14.918-14.7,29.06-28.641,43.2-42.581,7.776-4.834,12.464-4.746,18.217.361,1.279,1.135,2.539,2.291,3.762,3.485.756.738,1.62,1.387,2.569.7,1.667-1.2,3.948-1.415,5.2-3.26.727.724,1.459.4,2.351.242,4.9-.851,9.578-.136,12.675,4.057,2.95,3.99,2.729,8.552.678,13.007a23.4,23.4,0,0,1-1.151,2.32c-1.383,2.3-.961,3.872,1.3,5.588,7.776,5.9,8.226,13.171,1.463,20.061q-19.414,19.778-38.855,39.528c-.693.7-1.393,1.4-2.06,2.122-.573.621-1.361,1.229-.94,2.214.438,1.031,1.469.741,2.271.727,5.427-.089,10.855-.16,16.277-.373a26,26,0,0,1,12.471,2.911c4.525,2.179,4.793,5.42.346,8.136-4.406,2.689-9.059,4.974-13.654,7.339-8.436,4.341-16.913,8.6-25.356,12.927-1.072.55-2.7,1.09-2.517,2.39.164,1.161,1.791,1.537,2.948,1.957,6.124,2.228,12.518,3.877,17.991,7.569,11.618,7.838,18.089,19.2,21.686,32.421s3.377,26.867,4.386,40.37c.654,8.73.838,17.5,1.682,26.208.345,3.541-.874,3.9-3.765,3.538-6.357-.8-12.725-1.592-19.113-2.087-10.57-.821-21.158-1.446-31.742-2.078a73.076,73.076,0,0,1-23.294-5.328l-9.606-5.223-.006,0a20.463,20.463,0,0,0-2.112-1.984c-9.333-6.6-16.654-14.676-19.6-26.089-.564-2.189-1.482-4.285-2.366-6.791A12.9,12.9,0,0,0,2128.067,200.832Zm-2.937-64.962a7.225,7.225,0,0,0-2.509-4.214c-12.436-12.385-27.575-15.092-44.068-11.685-12.586,2.6-23.5,9.422-34.832,15.107-7.266,3.647-14.441,7.479-21.607,11.322-1.117.6-2.6,1.342-2.363,2.981.184,1.244,1.434,1.566,2.526,1.847,9.074,2.341,18.135,3.5,27.3.28,3.359-1.182,6.856-1.969,10.3-2.916,1.3-.358,3.1-1,3.836,0,.927,1.273-.759,2.367-1.612,3.3-5.881,6.442-12.16,12.489-18.394,18.587-10.718,10.489-21.521,20.906-31.528,32.1a27.531,27.531,0,0,0-3.634,4.629,8.6,8.6,0,0,0,1.9,10.454c2.49,2.077,6.065,1.7,9.4-1.064.947-.783,1.784-1.7,2.664-2.565q16.5-16.176,33-32.363c1.625-1.6,3.253-3.077,5.756-2.733,1.375.19,2.212.679.945,2.108-1.062,1.2-2.01,2.5-3.138,3.633q-12.795,12.827-25.643,25.6c-6.807,6.788-13.872,13.341-19.8,20.945-2.654,3.4-2.174,6.72.953,9.891,2.879,2.919,4.957,3.026,8.809.337a29.268,29.268,0,0,0,3.417-2.813c13.985-13.341,27.594-27.067,41.182-40.811,1.62-1.638,3.119-3.519,5.349-4.495a2.3,2.3,0,0,1,2.75.251c.84.843,0,1.666-.452,2.284a44.457,44.457,0,0,1-3.966,4.847c-7.791,7.9-15.667,15.714-23.469,23.6-3.721,3.762-7.571,7.435-10.568,11.827-2.313,3.39-1.546,7.4,1.7,10.26,2.54,2.238,5.872,2.018,9-.644,1.031-.878,2.006-1.824,2.969-2.778,16.8-16.657,33.259-33.653,50.607-49.75a18.528,18.528,0,0,1,2.6-2.013,2.711,2.711,0,0,1,3.144-.009c1.19.842.123,1.83-.1,2.653-.585,2.134-1.39,4.206-2.1,6.3-2.588,7.622-4.531,15.388-4.343,23.5.068,3.032.079,6.221,2.016,8.857.922,1.257,1.585,2.059,3.063-.017,3.816-5.361,6.178-11.444,9.158-17.206,6.052-11.7,12.31-23.327,16.455-35.914,5.409-16.428.776-30.883-13.095-40.722-11.893-8.437-28.136-6.745-37.6,3.913-8.191,9.227-6.8,22.727,3.041,29.455,5.457,3.73,11.224,3.343,16.266-1.093a13.031,13.031,0,0,0,3.059-16.125c-1.594-3.02-4.021-4.639-7.527-4.179a9.245,9.245,0,0,0-7.532,7.255c-.5,3.339,1.067,5.613,3.985,7.222.956.527,2.435.588,2.827,2.2a27.356,27.356,0,0,1-3.274.712c-3.992.375-8.236-2.232-8.741-5.285-1.309-7.921,3.959-15.578,11.3-16.42,7.842-.9,15.6,5.591,16.041,13.508a16.169,16.169,0,0,1-8.2,15.494c-6.719,4.12-13.935,4.614-20.691.4-19.031-11.875-10.387-34.693,2.261-41.915,9.221-5.264,18.845-5.9,28.834-2.252C2116.743,133,2120.514,135.187,2125.13,135.87Zm39.8-36.268c-.986-3.237-2.1-5.807-4.371-7.7-3.146-2.627-7.15-2.938-9.317-.325-2.578,3.107-2.833,6.774-1.366,10.468,1.324,3.334,3.68,5.462,7.474,5.674a13.208,13.208,0,0,0,13.9-13.155c.194-6.47-2.549-11.543-8.2-14.682-6.289-3.493-12.71-3.617-18.92.4-5.51,3.561-9,8.731-11.2,14.759-4.884,13.358,3.356,33.88,20.464,40.053,10.05,3.626,19.177,1.324,28.251-2.662,16.373-7.191,32.116-15.679,48.133-23.605,1.025-.508,2.747-.71,2.564-2.216-.166-1.342-1.752-1.576-2.912-1.935-9.166-2.834-18.249-2.251-27.242.783-3.617,1.22-7.2,2.56-10.785,3.865-1.164.423-2.494,1.087-3.346-.165-.712-1.044.2-2.124.888-2.974a72.877,72.877,0,0,1,4.792-5.624c10.259-10.311,20.645-20.495,30.849-30.859,6.391-6.487,13.393-12.422,18.587-20.02,2.531-3.706,2.091-7.577-1.107-10.217-3.011-2.488-6.773-2.107-10.229,1.309q-17.1,16.908-34.081,33.931c-2.133,2.131-4.455,3.469-7.852,3.039a25.776,25.776,0,0,1,5.97-8.15q20.231-20.3,40.441-40.615a12.968,12.968,0,0,0,3.34-4.823c1.01-2.935,1.159-5.851-1.173-8.307-2.351-2.477-5.112-1.867-7.885-.846a14.681,14.681,0,0,0-5.223,3.419c-9.4,9.248-18.752,18.55-28.152,27.8q-8.029,7.9-16.175,15.678c-1.286,1.226-3.472,2.273-4.63,1.108-1.343-1.35.791-2.716,1.71-3.818,8.077-9.675,17.511-18.036,26.282-27.044,3.094-3.18,6.4-6.164,9.38-9.445a8.256,8.256,0,0,0-.356-11.934c-3.141-3.139-6.129-2.985-10.4.58-.942.787-1.833,1.644-2.7,2.515-14.725,14.729-29.4,29.509-44.2,44.161-2.691,2.663-5.063,5.772-8.548,7.545-.987.5-2.223.923-3.171.239-1.237-.892-.167-2,.152-2.987a138.346,138.346,0,0,0,4.83-17.062c1.5-8.094,1.39-16.075-1.977-23.818-1.8.535-2.067,2.019-2.638,3.174q-7.87,15.906-15.636,31.862c-3.767,7.763-7.7,15.506-10.372,23.7-5.6,17.13.444,31.61,11.189,44.773a5.309,5.309,0,0,0,3.351,2.036,3.9,3.9,0,0,0-.019-1.279,35.9,35.9,0,0,0-1.692-3.278,35.875,35.875,0,0,1-4.747-24.857c3.167-20.15,22.837-30.5,40.046-20.942,9.476,5.263,12.562,16.394,7.266,26.217-4.215,7.82-15.056,10.8-23.587,6.493a13.293,13.293,0,0,1-5.509-18.628c3.724-6.138,12.192-7.459,18.509-2.887C2167.562,91.2,2168.108,94.7,2164.926,99.6Zm-75.807-50.247.379-.042q4.536,20.1,9.071,40.208c.907,4.026,1.632,4.276,4.944,1.749,8.407-6.413,11.776-15.29,12.019-25.466.375-15.624-12.384-33.461-28.448-40.47-8.4-3.662-17.2-4.935-26.243-5.435-12.668-.7-25.317-1.935-38.021-1.318-4.208.2-5.594,1.823-5.534,6.158.06,4.187.371,8.37.564,12.555.585,12.67.3,25.4,2.388,37.971,2.932,17.682,11.065,31.7,27.877,39.667,16.366,7.76,31.148,3.712,41.207-11.31,1.53-2.284,1.417-3.588-1.5-4.022-8.642-1.289-17.291-2.541-25.93-3.863-5.762-.883-11.51-1.865-17.265-2.8l.109-1.044q16.811,0,33.623-.014c1.557,0,3.754.5,4.357-1.044.586-1.5-1.342-2.731-2.412-3.838a60.791,60.791,0,0,0-21.936-14.688c-7.692-2.981-15.774-4.3-23.774-6.2l26.173,1.49a224.293,224.293,0,0,0-16.592-19.476c-2.781-2.949-5.885-5.586-10.12-6.46-1.054-.218-2.476-.239-3.26-1.774,2.271-.747,1.214-4.111,3.492-4.581,2.848-.586,6.192-1.815,6.9,3.212.271,1.906,1.807,3.794,3.15,5.359,5.787,6.748,13.119,11.72,20.466,18.021-1.294-10.912-2.59-20.9-1.2-30.964.718,4.37,1.046,8.781,1.757,13.131a67.045,67.045,0,0,0,20.019,38.559c.861.83,1.573,2.308,2.935,1.8,1.481-.549.755-2.19.762-3.295C2089.149,70.539,2089.118,59.947,2089.118,49.355Zm75.411,123.011c-.549,15.923.53,31.066-1.087,46.2q-1.53-5.838-2.538-11.766c-2.264-13.341-4.543-26.681-6.633-40.05-.468-2.985-1.586-2.852-3.549-1.5-.607.42-1.224.828-1.807,1.282-12.314,9.6-15.011,23.451-9.355,38.343,7.426,19.556,23.4,28.483,43.1,31.472,15.022,2.279,30.259,1.534,45.4,2.238,6.675.31,8.059-.955,7.65-7.6-.714-11.558-1.1-23.126-1.692-34.686a103.358,103.358,0,0,0-2.039-17.6c-4.456-19.729-17.864-36.406-39.829-40.3-10.732-1.9-24.1,5.127-28.557,14.986-1.271,2.817-.595,4.107,2.411,4.524,8.78,1.22,17.548,2.506,26.319,3.777q8.745,1.267,17.488,2.563l-.07.988q-2.322,0-4.64,0c-10.238-.014-20.474-.051-30.711-.011-1.166,0-2.8-.4-3.4.787-.722,1.44.816,2.423,1.62,3.422a49.084,49.084,0,0,0,16.086,12.782c7.759,3.992,16.139,6.144,24.591,8.1-5.851.6-11.609-.258-17.389-.472-2.317-.086-3.278.961-1.569,2.757,8.789,9.245,15.3,21.175,28.873,24.879.127.035.165.4.357.9-4.346.063-3.236,1.935-1.626,4.36,1.271,1.916,2.832,3.788,3.6,6.712-2-1.091-3.4-1.842-4.78-2.615-6.281-3.5-5.326-2.55-5.81,3.154-.015.171-.2.328-.5.777-.628-2.074-1.11-3.96-1.772-5.778-1.387-3.794-1.249-8.289-4.127-11.361a229.8,229.8,0,0,0-20.206-18.927c-.112-.1-.444.071-.548.092-1.255,9.776,3.686,19.008,2.5,29.8-1.628-5.047-3.339-8.955-4.418-13.128-2.122-8.207-3.859-16.559-8-24.11A41.964,41.964,0,0,0,2164.529,172.366Zm-11.39-32.261-.01.086a20.354,20.354,0,0,1-2.583-.136c-1.107-.193-2.336-.626-2.93.657-.487,1.047.554,1.82,1.119,2.566,1.71,2.257,3.57,4.4,5.258,6.671,1.46,1.968,2.8,2.181,4.378.165,1.521-1.941,3.061-3.872,4.713-5.7,2.143-2.37.817-3.124-1.494-3.413C2158.778,140.654,2155.955,140.4,2153.139,140.105Zm-12.892,26.631c3.355-1.714,5.3-4.356,7.88-6.191a1.78,1.78,0,0,0,.377-2.881c-3.3-3.237-6.318-6.783-10.635-10.055C2138.7,154.3,2139.449,160.313,2140.247,166.736ZM2112.728,108.5l.966-.458c-.547-3.114-.984-6.251-1.679-9.33-.487-2.158.083-5.828-1.781-6.1-2.151-.316-4.273,2.406-6.137,4.185a2.416,2.416,0,0,0-.027,3.868C2106.893,103.343,2109.835,105.9,2112.728,108.5Zm-8.491,7.2c-.451-2.149-1.953-3.324-3.038-4.753-4.922-6.49-5.766-6.482-10.529.018-.144.2-.307.387-.436.6-.968,1.567-.4,2.786,1.214,3.073C2095.617,115.372,2099.8,116.294,2104.237,115.7Z" transform="translate(-2001.549 -5.167)" fill="#75ae09"/>
</svg>
